<?xml version="1.0" encoding="utf-8"?>
<!-- Generator: Adobe Illustrator 16.0.0, SVG Export Plug-In . SVG Version: 6.00 Build 0)  -->
<!DOCTYPE svg PUBLIC "-//W3C//DTD SVG 1.1//EN" "http://www.w3.org/Graphics/SVG/1.1/DTD/svg11.dtd">
<svg version="1.1" id="Ebene_1" xmlns="http://www.w3.org/2000/svg" xmlns:xlink="http://www.w3.org/1999/xlink" x="0px" y="0px"
	 width="581.576px" height="655.079px" viewBox="0 0 581.576 655.079" enable-background="new 0 0 581.576 655.079"
	 xml:space="preserve">
<g>
	<path fill="#FFFFFF" d="M477.354,292.001c-2.145,0-14.961,6.846-17.05,8.615c-10.071-10.844-3.161-7.633-12.438-5.196
		c-4.165-4.562-8.344-9.172-12.509-13.665c-1.003,0.307-1.909,0.689-2.827,1.073c0.375,2.347,8.44,18.749,6.992,20.023
		c-5.07-2.932-10.071-5.851-15.072-8.796c-0.793-17.753,17.356-19.438,24.781-31.439c-0.349-0.578-0.627-1.072-0.906-1.56
		c-24.585-3.907-53.363-11.526-75.316,1.365c-1.002,5.857-10.07,32.999-13.246,32.999c-2.271-0.871-4.541-1.734-6.729-2.514
		c0.475-1.518,4.903-1.226,6.269-1.274c-2.368-9.569-2.911-12.815-10.252-18.262c-12.077-14.368-19.251-30.282-27.956-46.099
		c-6.715-11.325-17.133-22.454-20.323-33.396c-1.171-0.397-2.284-0.78-3.371-1.086c-0.432-1.755-0.808-3.419-1.17-5.07
		c-2.995-17.962-14.988-27.343-2.995-44.539c-0.641-3.894-1.197-7.71-1.713-11.513c-4.276-2.646-3.998-2.445-5.461-6.547
		c3.914-3.127,8.261,1.658,11.631,4.889c32.93,4.381,11.52-37.407-6.741-15.636c-10.419-4.499,3.371-14.055,1.198-26.062
		c-7.801-2.64-13.972-5.474-20.616-0.487c-6.421,9.953,4.29,15.719,3.635,26.361c-8.344,0.78-14.25-13.665-25.212-4.193
		c-10.447,34.656,13.692,12.397,26.396,14.64c1.004,7.821-14.43,8.107-2.074,24.021c-18.527,4.98-37.861,5.565-56.275,8.406
		c-0.641,2.048-1.282,4.109-1.908,6.241c0.808,0.494,1.629,0.968,2.549,1.462c-0.098,2.34-0.919,5.091-0.641,8.316l2.452,1.149
		c-1.644,3.629-4.82,2.459-0.195,7.425c11.813,1.769,31.843-3.796,45.02-5.161c0,22.266-60.342,66.687-40.103,81.731
		c3.803-4.492,6.645-11.018,7.745-12.578c1.95-2.8,16.84-25.791,19.292-28.43c0.543,0.195,1.101,0.39,1.728,0.683
		c2.438,7.898-9.528,37.101-12.634,47.66c-1.435,9.166-1.88,19.438-6.77,28.012c-3.886-2.758,1.658-4.757-5.015-6.644
		c3.636-8.567-0.446-6.129,7.438-12.391c-0.71-12.202-16.047-17.286-23.861-21.681c0.627-13.971-5.349-15.037-14.25-9.075
		c0.919,0.675,1.825,1.456,2.813,2.236v2.646c-6.979,4.979-14.514,10.252-21.326,14.654c-6.617-4.312,5.613-30.575,7.16-36.53
		c-0.725-22.266,0.097-39.357-21.214-42.199c-1.728,3.343,1.616,17.105,2.173,22.572c-8.999,10.928-18.791,17.872-9.709,31.042
		c1.268,12.313,3.9,13.957,15.699,17.098c0,0.676,0.083,1.47,0.167,2.243h-10.795c0,1.073,0,2.25,0.098,3.434
		c1.992,1.065,8.525-0.299,11.617-0.613c0,0.696,0,1.477,0.083,2.256c-2.452,1.282-9.166,0.585-12.161,1.282
		c-0.348,6.345-1.003,12.495-2.256,18.742c-1.462,2.438-9.625,16.117-11.171,14.438c7.174-14.438,11.882-26.835-5.265-10.628
		c-10.085,4.478-7.717-7.919-17.314,7.034c-6.909-5.377-6.645-6.059-13.525-5.767c-0.822-0.989-1.63-1.943-2.368-2.925
		c-2.452-0.098-4.806-0.098-7.173-0.098c-0.822,1.553-1.644,3.12-2.368,4.785c0.557,1.449,1.184,3.016,1.825,4.576
		c-0.641,15.921,10.628,16.903,22.51,23.833c-2.006,2.145-15.698-5.948-20.42-5.279c-0.543,1.073-1.086,2.166-1.546,3.239
		l3.538,4.966c6.992,0.599,18.791,12.508,25.783,17.788c-1.198,12.689-2.285,25.394-3.371,38.083
		c0.641,0.362,1.268,0.864,2.006,1.351c-1.1,5.768-4.36,16.033-4.36,21.786c5.99,5.377,0.279,7.814,0,17.872
		c6.617,7.117,4.806,12.885,4.625,23.832c0.919,0.781,1.922,1.574,2.911,2.438c0.098,6.143,0.167,12.397,0.362,18.665
		c1.449,1.254,2.911,2.521,4.458,3.803c0.167,7.703,0.808,13.262,2.507,21.479c-4.973,2.632-9.695,1.755-14.96,4.304l1.922,2.34
		c16.604,0.879,28.402-7.605,43.725-7.605c25.324,13.568,20.964,25.464,51.274,8.275c14.626-2.049,18.526,24.014,38.752,13.19
		c30.77-25.686,22.969-12.606,49.462,6.353c3.371-0.098,6.715-0.098,10.086-0.098c26.396-18.541,16.951-26.647,46.176-2.842
		c13.873,2.354,23.513-16.604,32.219-16.604c22.705,8.12,27.218,9.764,51.539-2.828c-7.703-9.959-9.445,4.109-16.409,4.109
		c-0.725-3.914,0.194-6.742,0.278-9.96c7.076-6.728,14.152-13.483,21.229-20.114v-0.39c-4.527-2.341-9.068-4.597-13.525-6.839
		c0.376-7.62-0.459-15.936,4.973-20.602c-4.973-27.148-2.967-56.749-1.156-83.883c1.895-2.939,3.803-5.865,5.711-8.707
		c7.634-9.067,17.342-11.422,25.227-20.392l-2.006-2.744c-7.87,1.671-12.244,3.315-18.875,6.839
		C455.388,321.914,491.966,324.958,477.354,292.001L477.354,292.001L477.354,292.001z M225.706,249.663l0.39,4.994
		c-0.265,0-0.529,0-0.808,0.118c-2.981-2.604-2.424-3.05-2.187-5.544C224.202,249.084,224.202,249.084,225.706,249.663
		L225.706,249.663L225.706,249.663z M228.91,249.063c-3.079-1.226-3.482-4.234-4.221-6.073c0.432-0.585,0.877-1.038,1.282-1.504
		C231.069,242.538,228.91,249.063,228.91,249.063L228.91,249.063L228.91,249.063z M231.431,235.837
		c1.407,3.1,1.797,3.914,1.588,9.026c-3.078-4.409-3.176-4.819-3.44-9.026H231.431L231.431,235.837L231.431,235.837z
		 M234.091,229.667c0.822,1.574,1.769,3.322,2.772,5.084c-0.85,3.134-0.85,3.134-1.128,2.995c-1.518-2.11-2.813-4.061-4.095-5.983
		L234.091,229.667L234.091,229.667L234.091,229.667z M237.866,223.865c1.574,1.818,4.04,3.51,3.761,7.828
		c-0.654,0.286-1.281,0.697-1.811,1.128c-1.295-2.368-2.605-4.785-3.886-7.013C236.584,225.14,237.211,224.429,237.866,223.865
		L237.866,223.865L237.866,223.865z M244.817,220.808c0,1.386,0,2.772,0.111,4.151c-0.696,0.39-1.407,0.892-2.103,1.393
		c-2.814-4.673-2.243-4.422-2.466-8.316C243.299,218.036,242.324,220.132,244.817,220.808L244.817,220.808L244.817,220.808z
		 M248.996,220.063c-0.529,0.571-1.17,1.421-1.825,1.421l-2.702-6.254c0.265-0.543,0.515-0.954,0.892-1.4
		C247.937,214.275,248.313,215.779,248.996,220.063L248.996,220.063L248.996,220.063z M250.5,213.885
		c-1.449-2.535-1.629-3.608-1.727-5.662c0.446-0.488,0.892-0.975,1.435-1.47C252.102,208.139,251.294,214.776,250.5,213.885
		L250.5,213.885L250.5,213.885z M403.862,491.811c0.529-0.877,1.171-1.656,1.812-2.438c11.422,2.438,15.894,1.17,27.858-1.852
		c-0.084,2.842-0.167,5.766-0.167,8.691l-15.071,0.877C404.323,492.215,404.323,492.215,403.862,491.811L403.862,491.811
		L403.862,491.811z M347.964,425.215c-4.902-6.254-22.328-24.795-22.328-32.414c9.36-4.416,17.787,9.18,23.777,16.381
		c14.152,14.557,32.65,23.359,50.801,32.721c49.365,24.028,49.365,24.028,50.104,24.613c-11.324,15.336-17.049,19.152-34.309,21.576
		C379.64,479.316,369.192,455.971,347.964,425.215L347.964,425.215L347.964,425.215z M401.676,330.285
		c5.085,2.759,14.612,3.239,22.064,6.854c-0.738,1.672-1.908,5.545-3.19,6.938c-10.252-4.89-20.127-12.021-26.758-20.797
		c2.911-4.046,10.057-3.482,14.793-4.012c0,0.188,0,0.383,0.084,0.676c5.906-1.274,7.257-3.796,11.881,0.09l-2.172,3.246
		c-6.715,0-17.594-2.159-22.064,2.633c9.263,0.083,16.799,0.78,26.771,2.926c-2.061,6.832-17.592,0.375-21.325-0.586
		C401.676,328.935,401.676,329.617,401.676,330.285L401.676,330.285L401.676,330.285z M420.467,303.451
		c0.905,2.138,9.347,27.135,5.168,22.664C421.637,316.314,415.843,311.544,420.467,303.451L420.467,303.451L420.467,303.451z
		 M403.585,316.433c-0.195-0.286-0.349-0.495-0.461-0.696c3.637-3.413,5.823-4.688,10.447-6.839c0.641,0.982,1.352,1.964,2.09,2.946
		C413.948,314.95,406.579,315.938,403.585,316.433L403.585,316.433L403.585,316.433z M274.444,196.201
		c-0.361,0.697-0.738,1.393-1.365,1.686c-0.891-0.696-1.796-1.281-2.716-1.859c0.279-0.606,0.543-1.184,0.919-1.671
		C272.188,194.46,273.011,194.948,274.444,196.201L274.444,196.201L274.444,196.201z M274.361,188.115
		c-0.544,0.292-1.003,0.578-1.448,0.871l-2.466-1.469v-0.773c1.546-1.268,1.086-1.268,3.997,0.397
		C274.361,187.426,274.361,187.718,274.361,188.115L274.361,188.115L274.361,188.115z M257.493,219.651
		c0.167-0.383,0.432-0.78,0.71-1.072c1.17,0.571,2.354,1.274,3.538,1.957c0,0.961-0.822,1.658-1.713,1.658
		C258.83,221.302,257.66,220.048,257.493,219.651L257.493,219.651L257.493,219.651z M261.908,229.674
		c-0.446,0.104-0.933,0.362-1.268,0.613c-1.838-1.964-3.663-3.942-5.502-5.781C257.326,222.152,260.877,225.864,261.908,229.674
		L261.908,229.674L261.908,229.674z M258.203,215.152c0-0.578,0-0.578,0.905-2.633c1.351,0.78,4.179,1.365,3.914,4.395
		c-0.362,0.202-0.738,0.397-1.017,0.689C260.738,216.719,259.471,215.946,258.203,215.152L258.203,215.152L258.203,215.152z
		 M269.556,236.249c-0.098,1.072-0.195,2.152-0.195,3.218c-0.083,0-0.195,0.118-0.278,0.195c-3.079-1.748-4.249-4.102-5.711-5.07
		v6.554c2.284,0.676,4.903-0.306,4.625,4.68c-0.265,0.188-0.529,0.39-0.808,0.683l-4.708-4.192
		c-5.279,18.359-8.358,39.748-7.452,59.569c4.151-3.127,4.151-2.633,9.708-1.679c1.463-10.544,2.452-21.848,5.711-30.944
		c2.716,8.782,0.376,20.316-0.822,30.282c-8.706,2.034-13.595,4.681-20.754,7.501c-3.998,8.602-6.366,12.808-5.739,25.086
		c1.003,0.209,2.006,0.495,2.995,0.795v1.191c-3.998,0.473-4.625,3.886-5.878,7.702h-0.292c-0.278,0,0.459-11.714,0.362-12.787
		c-8.72-20.511,10.628-50,14.612-69.333c0.362-6.269,3.273-24.906,7.62-27.539C264.833,233.518,267.188,234.89,269.556,236.249
		L269.556,236.249L269.556,236.249z M235.512,362.031h2.438c1.644-8.303,3.288-13.582,6.812-20.713
		c2.187,0.125,4.36,0.209,6.645,0.403c-1.282,10.739-1.282,27.538-14.069,30.673c-9.333-1.686-4.625-35.652-2.995-38.682
		c0.892,0.584,1.825,1.268,2.814,1.957C237.156,343.965,235.972,352.768,235.512,362.031L235.512,362.031L235.512,362.031z
		 M236.334,328.148c-0.362,0.584-0.905,1.267-1.365,1.469c-4.458-1.567-7.16-3.622-10.057-5.767c0-0.501,0-0.975,0.084-1.477
		C229.174,322.66,232.796,323.349,236.334,328.148L236.334,328.148L236.334,328.148z M232.977,316.92
		c-0.808-0.606-1.546-1.184-2.271-1.678c0-0.467,0-0.961,0.098-1.365c0.362,0.216,2.451,0.898,3.162,2.438
		C233.618,316.523,233.255,316.719,232.977,316.92L232.977,316.92L232.977,316.92z M217.098,320.521l0.265,1.678
		c0.474-0.397,0.905-0.689,1.365-0.982c4.276,5.07,4.444,16.298-4.541,16.298C197.75,333.816,203.475,322.583,217.098,320.521
		L217.098,320.521L217.098,320.521z M204.115,319.456c-6.087-1.567-8.149-5.961,0.724-5.961
		C206.191,316.029,208.475,318.279,204.115,319.456L204.115,319.456L204.115,319.456z M220.259,317.993
		c1.003-0.982,2.117-1.846,3.176-2.751c1.365,0.905,1.908,0.495,2.911,3.427c-1.268,0.982-2.8,1.079-3.538,1.274
		C220.455,318.376,220.455,318.376,220.259,317.993L220.259,317.993L220.259,317.993z M223.547,308.807
		c1.086-0.689,2.173-1.351,3.343-1.943c0.738,1.365,0.738,1.365,1.198,3.113c-0.376,0.501-0.655,1.073-0.934,1.672h-0.348
		c-1.003-0.202-2.006-0.404-2.981-0.488L223.547,308.807L223.547,308.807L223.547,308.807z M226.542,328.35
		c0.892,0.488,1.895,0.969,2.911,1.441c0,0.217-1.922,15.357-3.009,14.174C221.638,333.9,221.806,337.905,226.542,328.35
		L226.542,328.35L226.542,328.35z M266.825,316.523c0,3.329-7.354,4.987-9.792,5.558l-1.086-0.864
		C259.93,318.279,261.546,317.701,266.825,316.523L266.825,316.523L266.825,316.523z M263.747,314.574
		c-1.546,0.376-6.087,2.047-6.909,1.741c-0.181-0.376-0.362-0.78-0.543-1.072c3.176-1.651,4.165-3.301,8.274-3.016L263.747,314.574
		L263.747,314.574L263.747,314.574z M264.736,324.547c-1.908,2.347-5.446,4.088-7.981,4.088l-0.808-1.163
		C258.579,325.411,261.003,321.803,264.736,324.547L264.736,324.547L264.736,324.547z M256.142,332.445
		c0.696,0.098,1.435,0.39,2.967,1.455c-0.181,0-0.362,0-0.446,0.098l-2.716-1.163C255.947,332.626,256.03,332.543,256.142,332.445
		L256.142,332.445L256.142,332.445z M260.195,340.176c-0.445,0.487-0.822,0.779-1.365,0.779c-0.989-0.709-1.909-1.281-2.8-1.865
		v-1.574C257.924,336.164,258.663,337.905,260.195,340.176L260.195,340.176L260.195,340.176z M257.576,345.33
		c-0.376,0.292-0.738,0.599-1.017,0.891c-0.725-0.599-1.351-1.184-1.978-1.769c0-0.487,0-0.864,0.083-1.268
		C255.57,343.881,256.56,344.55,257.576,345.33L257.576,345.33L257.576,345.33z M253.843,347.377
		c5.265,2.271,2.813,5.488,2.535,5.195C253.119,350.316,252.032,350.01,253.843,347.377L253.843,347.377L253.843,347.377z
		 M257.298,358.799c-0.181,0.404-0.376,0.906-0.543,1.379c-0.919-0.194-1.825-0.389-2.633-0.473
		c-0.348-0.795-0.654-1.477-0.905-2.146C254.749,356.473,255.403,357.072,257.298,358.799L257.298,358.799L257.298,358.799z
		 M252.84,334.883c-0.167,0-0.348,0-0.543,0.098c-0.543-0.391-1.086-0.78-1.546-1.08c0-1.561,0.543-1.561,1.1-2.625
		c-1.268-0.098-2.549-0.203-3.719-0.203c-3.106-10.147-1.365-14.061,1.253-23.533c6.185-2.062,12.091-4.2,19.167-4.2
		c0.181,0.195,0.362,0.48,0.529,0.78c-6.06,9.848-17.412,1.567-16.242,17.293c-0.808,4.5-3.789,5.481,0.474,8.302
		C253.397,331.379,254.038,332.626,252.84,334.883L252.84,334.883L252.84,334.883z M251.406,337.613l0.265,1.643
		c-0.46,0.418-0.822,0.809-1.17,1.282c-0.543-0.864-1.003-1.728-1.449-2.633L251.406,337.613L251.406,337.613z M256.142,371.601
		c0,0.501,0,1.072,0.07,1.657c-0.46,0.404-0.46,0.404-1.003,0.404c-2.368-1.184-3.106-2.633-4.082-4.012
		c0.083-0.585,0.167-1.072,0.279-1.574C253.662,368.578,253.662,370.124,256.142,371.601L256.142,371.601L256.142,371.601z
		 M255.473,378.328l-0.265,2.146c-0.46-0.083-0.906-0.083-1.365-0.083c-2.633-0.377-2.089-1.951-2.716-3.135
		C252.84,374.93,252.84,375.807,255.473,378.328L255.473,378.328L255.473,378.328z M254.47,388.288
		c-2.981-1.825-6.519-4.179-6.519-7.007C250.319,381.281,254.93,384.109,254.47,388.288L254.47,388.288L254.47,388.288z
		 M252.297,394.152c-0.891-0.084-1.797-0.084-2.716-0.084c-0.627-0.682-1.254-1.365-1.825-2.047c0.46-0.795,1.295-1.756,2.006-2.243
		C251.127,391.032,252.032,391.129,252.297,394.152L252.297,394.152L252.297,394.152z M182.97,377.674c-0.362,0-0.724,0-1.1,0.084
		c-14.96-2.646-20.853-31.244-13.136-42.088C181.243,323.161,188.514,366.822,182.97,377.674L182.97,377.674L182.97,377.674z
		 M169.724,328.05c-0.46-0.982-0.906-1.936-1.365-2.842c0.459-0.662,1.003-1.268,1.546-1.859
		C170.072,323.851,171.158,329.617,169.724,328.05L169.724,328.05L169.724,328.05z M166.715,332.055
		c-0.613-1.574-1.268-3.022-1.811-4.499c1.198-1.073,1.198-1.073,1.546-1.073C167.648,327.75,167.718,333.121,166.715,332.055
		L166.715,332.055L166.715,332.055z M223.436,409.099c-1.059,3.231-2.981,17.188-6.798,17.188
		c-18.15-5.182-36.035-16.813-50.814-27.344c3.538-5.362,6.993-9.861,11.158-14.541
		C181.062,384.402,216.902,401.284,223.436,409.099L223.436,409.099L223.436,409.099z M157.828,400.113
		c14.431,7.634,29.154,17.678,44.658,26.271c-0.376,3.524-1.449,7.229-2.813,11.046c-0.251,0-0.557,0-0.725,0.084
		c-16.882-7.3-32.497-14.069-47.109-23.819C151.838,408.234,155.376,403.916,157.828,400.113L157.828,400.113L157.828,400.113z
		 M147.84,410.658c-6.7-6.156-9.973-8.873-13.511-16.297c2.828-4.207,1.908-7.619,3.914-11.617
		c5.99,3.914,10.795,7.313,16.59,12.969C154.833,399.041,147.952,410.658,147.84,410.658L147.84,410.658L147.84,410.658z
		 M167.899,433.405c9.723-5.168,40.298,11.339,53.559,15.629c5.794,2.354,4.262,3.72,1.435,9.569h-0.516
		C211.651,454.801,173.986,446.513,167.899,433.405L167.899,433.405L167.899,433.405z M201.218,457.35
		c0,2.438-2.103,11.91-5.627,11.91c-12.982-3.427-25.867-10.656-36.495-17.385c0-3.496,1.532-8.607,3.009-11.045
		C175.532,445.426,187.4,450.302,201.218,457.35L201.218,457.35L201.218,457.35z M266.742,487.73c-0.376,0-0.655,0.083-0.919,0.181
		c-20.95-3.914-42.554-9.082-62.25-15.142c0.181-4.29,0.989-7.995,2.187-11.617c8.971,0,23.764,6.436,33.305,9.068
		C251.406,471.795,274.542,466.627,266.742,487.73L266.742,487.73L266.742,487.73z M230.511,461.445
		c-1.253-2.73-0.432-7.424-0.25-9.375c21.312,0,42.902,5.475,65.343,6.06c1.63,0.195,3.176,0.195,5.251,1.657
		c0,2.842,0,5.754,0.111,8.692c-2.103,0.376-4.192,0.878-6.281,1.365C273.623,468.285,249.859,468.771,230.511,461.445
		L230.511,461.445L230.511,461.445z M266.658,439.186c0.083,3.121,0.446,6.715,0.083,10.921c-0.278-0.083-0.543-0.083-0.808-0.083
		c-22.064-1.365-40.59-5.851-61.54-11.325c0.543-4.792,1.448-7.619,2.911-11.339C227.085,432.347,246.321,435.271,266.658,439.186
		L266.658,439.186L266.658,439.186z M224.173,427.652c0-5.947,2.633-12.982,5.447-17.773c17.328,0.696,36.467,2.451,54.366,4.986
		c2.368,1.268,0.446,20.908,0.278,20.713C264.569,433.503,241.78,434.311,224.173,427.652L224.173,427.652L224.173,427.652z
		 M323.268,442.808c0.46,2.729,0.543,6.046,0.194,9.263c-4.262-0.111-8.455-0.111-12.619-0.111c-11.534,0-30.951,1.77-40.646-1.657
		l0.251-11.116C284.349,439.186,310.843,436.748,323.268,442.808L323.268,442.808L323.268,442.808z M370.726,465.262
		c-15.699,4.792-44.547,6.24-60.343,6.24c-7.159-2.34-4.987-7.132-4.819-13.566c17.62-2.063,36.035-1.073,54.283-0.502v-4.109
		c-9.264,0-31.76,5.488-31.76-8.093c1.992-1.365,4.541-0.487,7.424-0.195c-0.627,1.073-1.253,2.159-1.797,3.343
		c0.461,0.655,0.99,1.352,1.547,2.132c1.992,0,3.984,0,5.989,0.097l-0.543-5.376c-1.101-0.195-2.104-0.39-3.093-0.487
		C359.679,441.248,356.935,443.268,370.726,465.262L370.726,465.262L370.726,465.262z M346.683,435.857l-7.229-1.547
		c-1.741-5.237-5.278-12.801-2.563-13.01c1.115-0.07,9.528,9.987,10.629,13.47C347.226,435.076,346.962,435.467,346.683,435.857
		L346.683,435.857L346.683,435.857z M291.592,417.693c13.345,0,26.508-1.561,40.298,1.963c0.111,4.778,0.195,9.654,0.362,14.543
		c-2.368,0.376-4.708,0.877-6.979,1.379c-11.882-0.808-23.597-0.502-34.852-1.866C290.422,428.642,289.878,420.715,291.592,417.693
		L291.592,417.693L291.592,417.693z M307.848,335.336v-0.67c3.44-1.797,3.44-1.253,8.177,2.034v0.704l-1.533,1.211
		C310.801,337.939,309.491,336.84,307.848,335.336L307.848,335.336L307.848,335.336z M309.101,340.287
		c2.243,0.683,4.5,1.477,6.896,2.285c-0.14,0.947-0.14,2.047-0.14,3.119c-0.612-0.125-1.239-0.125-1.866-0.125
		C310.62,345.01,308.112,342.738,309.101,340.287L309.101,340.287L309.101,340.287z M307.694,329.15c2.98,0,3.97-0.73,7.383,1.859
		c-0.738,0.62-1.281,1.219-1.854,1.797C310.411,331.63,308.544,330.397,307.694,329.15L307.694,329.15L307.694,329.15z
		 M307.527,325.244l-1.31-2.821c2.758-0.85,4.932,0.794,8.344,2.472v1.755c-0.348,0-0.683,0.125-1.003,0.23
		C311.483,326.302,309.519,325.696,307.527,325.244L307.527,325.244L307.527,325.244z M305.661,317.492
		c-0.14-0.877-0.14-1.609-0.14-2.347c2.577-0.432,4.332,1.031,6.923,3.371c-0.809,0.578-1.49,1.309-2.201,2.041
		C308.642,319.532,307.151,318.516,305.661,317.492L305.661,317.492L305.661,317.492z M304.714,311.864c0-0.885,0-1.748,0.139-2.479
		c2.549,0.731,5.098,1.477,7.745,2.222c-1.394,1.254-3.72,1.498-4.61,1.63C306.803,312.735,305.772,312.227,304.714,311.864
		L304.714,311.864L304.714,311.864z M304.045,305.192c-1.101-3.712,4.179-0.675,5.628-0.097c0,0.383,0.083,2.243-0.655,1.866
		C307.304,306.383,305.675,305.784,304.045,305.192L304.045,305.192L304.045,305.192z M303.278,298.75
		c1.574-0.613,4.18-2.813,6.784-0.745v1.358l-1.7,1.086C306.218,300.338,304.045,299.961,303.278,298.75L303.278,298.75
		L303.278,298.75z M303.167,291.13c1.533,0,3.037,0.111,4.583,0.209c0.376,0.738,0.767,1.428,1.142,2.256
		c-0.473,0.418-0.947,0.94-1.42,1.449l-3.162-0.627C303.947,293.29,303.558,292.175,303.167,291.13L303.167,291.13L303.167,291.13z
		 M300.437,287.063v-1.783c2.313,0.537,4.652,1.107,7.104,1.783c-1.03,1.121-1.296,1.539-2.326,1.539
		C303.544,288.052,301.997,287.501,300.437,287.063L300.437,287.063L300.437,287.063z M298.056,279.109
		c0.307-0.46,0.584-0.947,0.877-1.268c2.076,1.595,4.109,3.322,6.185,5.063c-0.46,0.46-0.878,0.955-1.184,1.595h-0.725
		C299.393,282.905,299.393,281.164,298.056,279.109L298.056,279.109L298.056,279.109z M303.585,277.828
		c-1.686-1.219-3.357-2.514-4.917-3.628l4.29-0.829l2.451,2.229C305.409,277.145,304.226,277.709,303.585,277.828L303.585,277.828
		L303.585,277.828z M297.011,270.208c0-1.776,0.487-1.504,0.961-2.515c2.117,1.01,4.248,2.027,6.352,3.162
		c-1.295,1.393-2.702,1.003-3.998,1.156C299.155,271.372,298.083,270.73,297.011,270.208L297.011,270.208L297.011,270.208z
		 M295.868,265.145c-0.167-0.717-0.334-1.421-0.334-1.992c1.866,0,3.887,0,5.92,0.195c0.361,0.704,0.682,1.442,1.003,2.375
		c-0.321,0-0.642,0-1.003,0.174C299.587,265.528,297.721,265.347,295.868,265.145L295.868,265.145L295.868,265.145z M294.03,259.315
		c2.465-0.835,4.346-1.497,7.299,0.501c-1.087,1.184-1.714,1.337-2.646,1.532L294.03,259.315L294.03,259.315L294.03,259.315z
		 M293.5,252.901c1.923-2.054,4.374,0.132,7.091,2.041c-0.432,0.432-0.822,0.877-1.213,1.469c-1.239-0.139-2.451-0.139-3.551-0.139
		C294.977,255.088,294.183,253.911,293.5,252.901L293.5,252.901L293.5,252.901z M297.958,233.316
		c2.896,4.004,6.811,18.756,10.809,21.187c1.17,12.801,9.876,23.36,13.525,36.634c-2.911,1.644-8.455,6.833-10.363,7.223
		C308.935,295.128,298.779,241.04,297.958,233.316L297.958,233.316L297.958,233.316z M324.006,311.244
		c0,3.33-3.177,4.604-5.642,6.547c0,3.023-0.445,6.547-1.268,10.168c-0.265,0-0.445,0.091-0.627,0.188
		c-0.278-0.098-0.557-0.188-0.738-0.3c-0.265-4.652-3.552-17.147-0.822-20.1C318.28,308.319,320.272,308.807,324.006,311.244
		L324.006,311.244L324.006,311.244z M316.011,303.632c-0.098-0.78-0.168-1.56-0.168-2.243c6.533,0.585,10.518,4.297,16.242,9.173
		c-0.362,0.397-0.738,0.801-1.281,0.801C325.803,308.73,320.913,306.181,316.011,303.632L316.011,303.632L316.011,303.632z
		 M317.584,349.676c-0.209,0.613-1.393,1.49-2.089,1.755c-4.5-0.627-3.914-1.755-5.768-4.861
		C313.058,346.834,313.894,346.681,317.584,349.676L317.584,349.676L317.584,349.676z M314.909,354.133
		c0.822,0.669,1.742,1.365,2.646,2.048c-0.361,0.585-0.724,1.17-1.086,1.853h-3.455c-0.626-0.766-1.17-1.561-1.713-2.256
		C312.472,355.205,313.67,354.593,314.909,354.133L314.909,354.133L314.909,354.133z M318.921,362.227
		c0,0.599-1.365,3.245-1.824,3.036c-2.814-1.185-3.344-2.438-4.527-4.012C315.202,360.861,315.731,360.568,318.921,362.227
		L318.921,362.227L318.921,362.227z M320.091,368.285c-0.083,0.195-0.166,0.391-0.277,0.683H319.2
		c-1.365-0.39-2.73-0.767-4.096-1.072C316.749,366.822,317.919,366.321,320.091,368.285L320.091,368.285L320.091,368.285z
		 M320.468,373.746c-0.195,0.779-0.738,2.842-1.268,2.563c-1.561-0.613-3.106-1.086-4.555-1.574
		c-0.084-0.599-0.084-1.184-0.084-1.783C315.731,371.684,318.838,371.405,320.468,373.746L320.468,373.746L320.468,373.746z
		 M315.104,378.035c0.738,0,1.365-0.277,2.912,1.004v0.487c-0.738,0.487-1.436,0.655-2.006,0.655
		c-0.363-0.084-0.711-0.168-1.004-0.168C315.007,379.317,315.007,378.621,315.104,378.035L315.104,378.035L315.104,378.035z
		 M330.804,384.499c-1.004,1.463-18.066,12.3-18.234,12.188c-1.379-2.242-2.744-4.472-3.998-6.631
		C315.104,386.156,323.101,378.621,330.804,384.499L330.804,384.499L330.804,384.499z M308.571,394.068
		c0.084,0.697,0.195,1.365,0.363,2.063c-1.992,2.715-1.992,2.715-2.174,2.618c-1.086-0.585-2.187-1.059-3.273-1.546
		C303.85,392.996,304.491,393.191,308.571,394.068L308.571,394.068L308.571,394.068z M322.376,397.969
		c2.535,3.427,3.719,5.572,5.627,10.643c-6.087,1.852-10.99,2.242-16.813,2.34c-5.168-0.182-9.959-0.85-14.139-1.853l0.266-42.276
		c-0.822-16.604-10.796-116.603-6.436-121.304c1.002,2.256,6.352-0.188,7.34,3.141c-0.264,0.397-0.529,0.773-0.821,1.274
		c-2.995-1.56-3.97-1.274-6.603-1.274c1.63,17.579,7.885,33.096,9.068,52.04c0.529,4.688,2.994,6.449,1.992,12.892
		c0.459,0.689,1.002,1.358,1.545,2.055c-4.624,17.475,18.777,52.43,4.527,70.817c-2.367,1.922-4.707,3.887-6.965,5.837
		c0,2.925,0,5.864,0.07,8.789C312.849,405.477,310.94,399.529,322.376,397.969L322.376,397.969L322.376,397.969z M294.489,219.338
		c-0.32-0.307-2.131,0.473-2.41,0.626c-0.877-0.327-3.412-1.525-4.109-1.832C288.667,217.367,291.034,216.051,294.489,219.338
		L294.489,219.338L294.489,219.338z M290.882,214.177c-0.586-0.313-2.814-1.135-2.814-1.748c1.992-1.755,1.449-1.964,4.082,0.376
		C291.884,213.3,291.258,214.08,290.882,214.177L290.882,214.177L290.882,214.177z M256.741,286.764
		c1.853-2.006,5.432-0.55,7.647,1.866c-0.362,0.516-0.627,1.191-0.864,1.853h-3.092c-1.226-1.059-2.465-1.992-3.691-2.925V286.764
		L256.741,286.764L256.741,286.764z M263.315,296.013c0,0.132,0,0.257,0.125,0.404c-0.641,0.425-1.268,0.954-1.783,1.525
		l-5.405-3.322c-0.125-1.121-0.125-1.121,0.265-1.797C258.705,293.805,261.003,294.905,263.315,296.013L263.315,296.013
		L263.315,296.013z M263.831,286.15c-3.9-2.062-6.171-4.088-3.803-7.215C260.919,279.513,267.996,283.226,263.831,286.15
		L263.831,286.15L263.831,286.15z M257.186,273.147c2.173-2.347,5.934,0.926,8.832,3.273c-0.139,0.474-0.279,0.94-0.279,1.525
		c-0.585,0-1.17,0.181-1.727,0.327C260.237,277.5,258.927,274.868,257.186,273.147L257.186,273.147L257.186,273.147z
		 M261.379,265.271c1.755,1.846,9.208,11.144,3.706,8.204C263.9,272.625,256.476,265.271,261.379,265.271L261.379,265.271
		L261.379,265.271z M264.708,266.398c-2.271-3.489-2.173-3.768-1.908-6.686c1.769,1.143,4.165,3.35,4.165,6.993
		C266.185,266.559,265.377,266.398,264.708,266.398L264.708,266.398L264.708,266.398z M261.936,256.265
		c0.529-0.627,1.101-1.247,1.686-1.707c1.713,1.247,3.44,2.465,5.293,3.865c0,0.313-0.836,2.159-1.282,2.278
		C265.642,259.183,263.761,257.644,261.936,256.265L261.936,256.265L261.936,256.265z M262.535,249.572
		c0.39-0.877,0.808-1.623,1.365-2.326c1.741,0.864,3.524,1.728,5.404,2.605c0.14,0.717-0.543,4.388-0.835,4.207
		C266.436,252.462,264.416,251.021,262.535,249.572L262.535,249.572L262.535,249.572z M270.642,256.968
		c1.421,2.855,2.173,7.202,0,9.563c-0.098-0.111-0.195-0.202-0.195-0.292C270.294,265.612,267.842,256.968,270.642,256.968
		L270.642,256.968L270.642,256.968z M276.353,271.601c3.998,0.592,7.634,0.989,12.258,3.016c-0.083,0.703-0.083,1.386-0.083,2.062
		c-2.368,0.195-4.722,0.48-6.993,0.773c-1.922-0.195-3.816-0.376-5.711-0.488C274.166,273.844,275.169,273.753,276.353,271.601
		L276.353,271.601L276.353,271.601z M289.321,283.309c0.738,31.265,3.371,63.093,2.271,94.852c-0.446,0.947-0.892,1.937-1.268,2.911
		c-3.97,1.365-8.97,0.669-12.704,0.878c-2.089-0.571-4.08-1.156-6.086-1.644c1.003-32.818,2.089-65.636,3.176-98.453
		C280.087,281.665,283.067,281.463,289.321,283.309L289.321,283.309L289.321,283.309z M296.035,223.134
		c-0.153,0.892-0.292,1.748-0.292,2.646c-0.475,0-0.961,0-1.449,0.091c-1.881-0.989-3.774-1.95-5.558-2.925
		c0.487-0.495,0.947-0.982,1.603-1.47C293.793,221.476,295.228,222.834,296.035,223.134L296.035,223.134L296.035,223.134z
		 M296.927,230.412c-0.641,0.738-3.343,1.114-4.401,1.114c-0.418-0.592-2.604-1.024-2.884-1.462
		c0.794-0.557,4.527-1.734,6.018-1.734L296.927,230.412L296.927,230.412L296.927,230.412z M291.341,235.963
		c0.543-0.286,1.087-0.585,1.699-0.78c1.102,0.975,2.285,1.95,3.455,3.016c-0.445,0.397-0.892,0.884-1.352,1.386
		C292.776,239.285,290.7,238.199,291.341,235.963L291.341,235.963L291.341,235.963z M297.958,243.185
		c-0.182,1.156-2.521,2.152-2.912,2.152c-1.253-0.773-2.521-1.574-3.648-2.152c0.57-0.961,1.128-1.755,1.824-2.542
		C294.698,241.43,296.342,242.224,297.958,243.185L297.958,243.185L297.958,243.185z M271.715,392.104
		c-1.713-1.546-1.616-1.657-1.435-2.813c4.262-1.281,20.323-5.084,21.507,1.561C285.157,391.032,277.356,392.104,271.715,392.104
		L271.715,392.104L271.715,392.104z M265.07,226.087c0.683,0,3.218,2.389,4.569,3.538c0,0.961,0,1.888,0.111,2.946
		c-0.306-0.119-0.613-0.119-0.794-0.119C267.215,232.453,265.168,226.4,265.07,226.087L265.07,226.087L265.07,226.087z
		 M265.377,220.759c1.56-1.671,2.02-0.634,4.847,0.725l0.571,4.485c-0.181,0-0.279,0.118-0.376,0.223
		C265.669,221.372,265.669,221.372,265.377,220.759L265.377,220.759L265.377,220.759z M272.369,217.611c-0.39,0-0.794,0-1.184,0.104
		c-1.546-1.462-3.093-2.925-4.555-4.381C266.63,210.827,271.923,213.739,272.369,217.611L272.369,217.611L272.369,217.611z
		 M267.369,196.898h-0.543c-0.167-0.098-0.362-0.202-0.459-0.202c0.292-0.78,0.571-1.56,0.919-2.34
		C268.553,194.46,268.372,195.421,267.369,196.898L267.369,196.898L267.369,196.898z M268.288,206.105
		c0.39-0.306,0.766-0.605,1.268-0.919c1.24,1.24,2.117,2.389,4.555,3.649c-0.293,0.529-0.57,1.038-0.779,1.553h-0.683
		C270.141,208.536,269.347,207.693,268.288,206.105L268.288,206.105L268.288,206.105z M269.277,199.621h2.535
		c1.199,1.47,3.719,2.925,1.728,5.098C270.28,202.957,270.363,201.975,269.277,199.621L269.277,199.621L269.277,199.621z
		 M277.537,186.158c2.187-0.794,3.079-1.372,6.185-1.177c3.803,17.488,6.7,61.624,2.242,83.994c-1.978,0-3.9,0-5.809,0.083
		c-1.364-0.585-2.716-1.156-4.08-1.658C271.645,243.464,276.158,210.18,277.537,186.158L277.537,186.158L277.537,186.158z
		 M288.067,202.853c0.989,1.08,3.357,4.506,0.893,5.76C288.151,205.973,286.8,204.225,288.067,202.853L288.067,202.853
		L288.067,202.853z M290.282,201.676c1.338,0.689,2.842,1.358,4.318,2.034c-0.111,0.662-0.111,1.344-0.111,2.138
		c-0.488,0-0.989,0-1.365,0.118C291.703,205.667,288.527,203.556,290.282,201.676L290.282,201.676L290.282,201.676z M298.696,209.65
		c-0.655,0.585-1.17,1.295-1.728,1.999c-1.7-1.135-3.26-2.138-4.833-3.099C293.862,207.686,297.916,207.171,298.696,209.65
		L298.696,209.65L298.696,209.65z M303.098,215.849c-1.156,0.898-1.156,0.898-2.786,1.344c-4.541-1.198-9.764-1.727-3.955-3.782
		C299.1,214.456,300.813,214.978,303.098,215.849L303.098,215.849L303.098,215.849z M303.962,219.944
		c-1.018,0.885-2.021,2.041-2.926,2.041c-2.438-0.578-2.814-1.449-3.636-2.633C300.116,218.579,301.314,217.116,303.962,219.944
		L303.962,219.944L303.962,219.944z M306.12,225.739c-0.125,0.271-0.125,0.662-0.125,1.086l-3.803,1.226
		c-5.613-0.947-5.127-2.201-1.811-4.798C302.067,224.088,302.944,225.035,306.12,225.739L306.12,225.739L306.12,225.739z
		 M308.614,232.655c0.348,0.474-1.672,0.446-2.383,0.446c-2.674-0.383-5.251-2.953-6.17-1.713
		C302.597,227.981,306.343,229.451,308.614,232.655L308.614,232.655L308.614,232.655z M311.079,236.736
		c-0.125,0.892-0.265,1.922-0.265,2.932c-0.558,0-1.156,0-1.755,0.125c-3.427-0.515-4.276,0.292-5.92-1.198
		c0.682-1.421,1.531-2.688,2.354-3.963C307.249,236.025,309.171,235.315,311.079,236.736L311.079,236.736L311.079,236.736z
		 M312.876,243.743v1.059c-1.406,1.546-3.287,1.093-4.986,0.898l-1.714-3.685C308.153,241.277,310.577,242.35,312.876,243.743
		L312.876,243.743L312.876,243.743z M315.467,250.756l-7.132-0.132l-0.947-1.01C310.995,247.455,311.581,247.211,315.467,250.756
		L315.467,250.756L315.467,250.756z M317.737,254.998c-0.961,1.031-4.025,1.031-4.694,1.031l-3.579-1.741
		c0.098-0.725,0.25-1.295,0.39-1.88C312.374,253.277,315.035,254.141,317.737,254.998L317.737,254.998L317.737,254.998z
		 M318.949,260.694c-0.265,0.279-0.558,0.725-0.808,1.156h-1.212c-1.087-0.731-2.159-1.477-3.12-2.194
		C314.868,257.909,317.459,257.324,318.949,260.694L318.949,260.694L318.949,260.694z M321.819,266.726l-1.087,0.884
		c-2.633-0.306-3.357-0.989-4.444-2.159c0.627-0.787,1.631-2.633,2.633-2.633C319.548,263.494,321.178,264.665,321.819,266.726
		L321.819,266.726L321.819,266.726z M324.897,271.399c-0.404,0.438-0.836,1.024-1.087,1.616h-0.947
		c-2.159-0.871-4.165-1.616-6.198-2.319C318.28,268.948,321.931,269.972,324.897,271.399L324.897,271.399L324.897,271.399z
		 M327.349,275.508c0,0.362,0,0.725,0.139,1.087c-0.654,0.703-1.351,1.685-2.354,1.685c-2.717-0.362-3.956-0.466-4.625-2.047
		C322.654,275.508,324.229,274.039,327.349,275.508L327.349,275.508L327.349,275.508z M328.24,281.818
		c-1.101,0.286-2.173,0.592-3.26,1.024c-1.782-1.17-4.108-2.18-3.552-3.524C325.37,279.318,325.719,278.573,328.24,281.818
		L328.24,281.818L328.24,281.818z M330.692,285.454l0.375,1.31h-7.438c0-0.453,0.152-0.885,0.278-1.149
		C326.165,285.454,328.421,285.454,330.692,285.454L330.692,285.454L330.692,285.454z M333.854,291.388
		c-0.181,0.613-0.181,0.613-2.493,1.657c-1.379-0.801-2.717-1.657-3.873-2.291c0.753-0.599,1.52-1.212,2.313-1.637
		C331.138,289.73,332.475,290.608,333.854,291.388L333.854,291.388L333.854,291.388z M349.956,339.576
		c-1.352,0.6-2.73,1.171-3.998,1.867c-8.441-2.062-10.07-2.744-14.527-10.461c1.086-2.549,2.186-5.07,3.37-7.543
		c0.544-0.09,1.171-0.09,1.797-0.09c-0.167,7.424-2.423,8.991,5.099,12.215c0.181-2.354-1.254-3.434-1.895-4.088
		c0.445-3.127,2.535-5.362,3.97-7.626c-3.72-2.835-4.806-4.889-8.427-6.93c-3.817,0.181-11.688,3.322-14.055,2.041
		c-0.112-0.585-0.112-1.17-0.112-1.665c5.809-4.688,10.085-4.082,17.523-4.583c-3.705-9.082-11.896-10.83-19.236-14.654
		c-0.084-0.48-0.084-0.48,0.349-1.553C341.96,302.455,347.769,314.95,349.956,339.576L349.956,339.576L349.956,339.576z
		 M323.462,322.966c0.627,0,1.087,0.313,2.257,0.975c-1.991,2.173-3.078,4.493-4.541,7.131c-0.265,0-0.543,0-0.821,0.105h-0.543
		C320.732,327.959,321.916,325.411,323.462,322.966L323.462,322.966L323.462,322.966z M331.263,321.315c0.084,0,0.168,0,0.362,0.097
		c0,3.134-1.63,8.205-4.526,10.155c-0.461-0.39-0.92-0.794-1.296-1.177L331.263,321.315L331.263,321.315L331.263,321.315z
		 M351.405,344.174c-3.72,2.925-6.617,4.192-9.709,5.836c2.075,3.524,4.179,7.132,6.352,10.768
		c-0.362,0.474-0.725,0.947-1.003,1.561c-7.243-0.195-10.447,1.254-15.88,2.047c0,2.619-5.168,5.948-7.438,6.645
		c0-13.107-3.637-24.627-5.545-36.439c6.993-7.521,18.332,6.938,23.694,12.411C345.233,345.539,347.421,344.855,351.405,344.174
		L351.405,344.174L351.405,344.174z M355.681,396.492h-0.821c-11.171-2.229-12.522-7.117-18.693-16.019l-9.709-0.292
		c-0.097-0.168-0.167-0.293-0.278-0.377c15.071-6.923,5.822,1.77,17.787,0.989c-1.629-2.173-3.259-4.206-4.805-6.269
		c-4.709,0.404-9.444,0.795-14.068,1.281c-0.461-0.486-0.92-0.877-1.365-1.281c6.895-2.131,9.359-3.314,17.871-3.314l2.994,3.803
		c1.004-0.084,2.09-0.084,3.176-0.084c-7.145-6.854-7.605-6.729-15.879-7.814v-0.975c2.563-2.063,10.07-1.087,14.25-1.087
		C352.032,376.977,357.589,381.658,355.681,396.492L355.681,396.492L355.681,396.492z M408.126,442.599
		c-0.279-0.098-0.446-0.098-0.627-0.098c-7.717-2.646-11.451-5.362-17.078-9.96c17.705-10.836,15.894-14.166,20.156,4.389
		C407.972,438.796,408.126,439.312,408.126,442.599L408.126,442.599L408.126,442.599z M421.832,449.326h-0.725
		c-4.903-1.657-7.814-3.496-10.99-6.059C410.117,436.748,430.733,437.041,421.832,449.326L421.832,449.326L421.832,449.326z
		 M384.362,429.714c-9.013-5.279-13.637-9.276-20.24-16.241c7.689-3.496,15.059-2.521,23.582-2.229
		c1.185,1.949,7.258,11.714,6.255,14.945C391.243,426.984,386.173,429.714,384.362,429.714L384.362,429.714L384.362,429.714z
		 M357.491,407.816c-1.1-0.975-3.161-1.504-3.092-2.896c0.32-6.24,14.5-1.505,21.493-0.6
		C368.454,405.672,358.3,407.816,357.491,407.816L357.491,407.816L357.491,407.816z M371.101,389.166h0.266
		c0.557,2.563-0.809,3.719-2.535,6.17l-0.809-1.477C368.997,392.3,370.015,390.739,371.101,389.166L371.101,389.166L371.101,389.166
		z M364.471,396.214c-0.181,0-0.278,0-0.349,0.097c-2.451-3.607,0.725-6.254,2.354-8.705c0.543,0.32,1.17,0.599,1.825,0.975
		C368.302,389.166,365.111,394.766,364.471,396.214L364.471,396.214L364.471,396.214z M359.483,398.554h-0.543
		c-0.361-0.292-0.738-0.487-1.086-0.683c0-3.426,1.908-6.533,2.91-9.486c0.35,0.32,0.711,0.613,1.171,0.906
		C361.755,392.703,361.03,395.434,359.483,398.554L359.483,398.554L359.483,398.554z M350.138,354.593
		c9.709-4.778,10.433,2.354,18.247,11.826c0,3.147-6.449,19.251-7.174,18.847c-3.356-2.438-1.728-4.096-0.821-6.449
		C356.851,371.977,350.138,361.836,350.138,354.593L350.138,354.593L350.138,354.593z M379.919,342.209
		c1.894,1.268,3.886,2.535,5.877,3.9c0,0-5.989,41.12-11.965,37.889c-3.914-4.193,15.225-34.963,7.885-39.629
		c-5.447,4.875-9.166,29.475-13.805,39.058c-1.435,0-1.072-0.39-1.352-0.683C368.747,372.395,371.561,348.172,379.919,342.209
		L379.919,342.209L379.919,342.209z M388.15,346.89c2.257,9.667,1.491,22.302,1.909,32.219c-2.355,0.989-4.611,1.964-6.91,3.036
		l-1.156-0.975C382.802,371.795,382.342,354.133,388.15,346.89L388.15,346.89L388.15,346.89z M382.161,337.613
		c0-7.822,3.732-12.203,11.269-11.82c3.273,4.214,3.886,7.529,4.527,14.271c-1.171,0.599-2.341,1.17-3.427,1.755
		C387.97,341.123,386.34,340.955,382.161,337.613L382.161,337.613L382.161,337.613z M393.43,345.622
		c6.7,3.622,5.517,18.164,1.448,25.087h-0.348c-2.285-6.227-1.824-17.76-2.188-23.902L393.43,345.622L393.43,345.622L393.43,345.622
		z M401.495,338.114c6.979,0,1.268,10.169-0.182,13.567h-1.1c-0.335-0.098-0.711-0.195-1.073-0.195
		C398.5,344.55,398.876,343.588,401.495,338.114L401.495,338.114L401.495,338.114z M417.556,350.79
		c-1.63,15.823-15.058,47.472-32.748,50.104c-3.636-0.475-7.174-0.961-10.712-1.365c0-15.727,16.325-12.593,25.143-25.574
		c3.343-9.96,5.892-19.822,10.252-28.709C413.293,345.246,414.296,347.308,417.556,350.79L417.556,350.79L417.556,350.79z
		 M425.565,406.967c-7.912,5.837-17.245,13.957-26.689,15.531c-1.629-4.707-3.538-9.986-4.639-13.887
		C401.76,403.736,425.565,382.145,425.565,406.967L425.565,406.967L425.565,406.967z M439.981,403.443
		c0.893,3.9,2.452,7.801,1.631,12.996c-5.168,3.496-21.869,18.136-25.77,18.93c-2.55-4.68-4.264-8.789-6.088-12.871
		C413.948,419.852,437.989,401.98,439.981,403.443L439.981,403.443L439.981,403.443z M427.821,445.9
		c-10.168-12.857,0.543-14.821,11.45-21.953c0.794,0,1.603,1.77,2.424,3.218C443.325,440.83,437.989,440.746,427.821,445.9
		L427.821,445.9L427.821,445.9z M440.79,445.328l-0.266,10.169c-0.361-0.111-0.641-0.111-0.904-0.111
		c-5.35-0.292-8.623-1.156-12.969-2.632C425.927,450.455,438.631,444.869,440.79,445.328L440.79,445.328L440.79,445.328z
		 M358.035,494.652c5.726-3.9,11.7-2.354,18.972-3.9c6.533-2.535,12.703-7.424,19.502-3.021c-10.434,7.703-17.245,16.27-30.13,16.27
		C361.03,501.994,360.124,498.943,358.035,494.652L358.035,494.652L358.035,494.652z M341.96,487.521
		c0.112-3.9,0.266-7.828,0.461-11.715c8.427-5.182,17.885-4.193,28.053-4.681c0.627-1.281,1.338-2.563,2.076-3.72
		c0.725,0,12.258,11.715,14.445,13.86c-15.435,5.279-24.879,8.497-39.853,9.097C345.415,489.373,343.688,488.398,341.96,487.521
		L341.96,487.521L341.96,487.521z M210.272,490.752c1.003-2.841,2.104-5.668,3.19-8.398c19.25,1.644,37.289,8.287,57.18,10.447
		c0.07-6.353,0.641-12.815,1.546-18.555c12.885,0.377,60.593-4.192,64.409,4.012c0.836,3.496,1.741,7.41,1.825,11.688
		c-7.801,7.926-13.066,16.13-23.514,17.982c-2.646-1.728-15.266-10.838-11.422-14.152l11.422,1.449
		c1.282,4.108-0.348,8.037,1.672,11.742c2.688-2.466,2.8-7.814,3.344-11.256c3.803-0.57,6.965-0.863,11.798-0.486
		c-0.195-1.352-0.376-2.717-0.46-4.096c-20.239-2.438-41.468-8.595-59.27,1.672c-29.126,25.17-21.242-2.73-46.998-6.353
		C220.092,488.092,214.729,490.752,210.272,490.752L210.272,490.752L210.272,490.752z M168.275,479.121
		c1.17-5.265,2.354-8.691,4.458-12.885c11.505,3.984,24.488,7.703,35.743,15.128c0.167,2.938,0.459,9.388-1.825,11.812
		C195.855,488.789,177.789,479.121,168.275,479.121L168.275,479.121L168.275,479.121z M146.949,470.625
		c4.82,0,12.077,6.547,16.785,9.764c-1.908,2.55-8.079,5.656-10.614,6.561C146.67,482.632,147.409,477.756,146.949,470.625
		L146.949,470.625L146.949,470.625z M142.84,448.937c2.201,0,22.245,11.228,25.352,14.556c-0.822,2.146-5.46,11.047-5.739,10.936
		C154.123,467.992,136.878,460.957,142.84,448.937L142.84,448.937L142.84,448.937z M138.313,428.35
		c0.362-0.404,0.738-0.697,1.087-0.99c6.185,5.768,10.726,8.999,18.805,13.178c-0.919,3.329-1.825,6.658-2.716,10.07
		c-0.195,0-0.279,0-0.376,0.084C142.84,444.173,138.786,442.014,138.313,428.35L138.313,428.35L138.313,428.35z M135.248,406.842
		c6.965,6.269,28.667,16.521,32.122,23.945c-2.716,3.412-2.897,3.9-6.352,4.387C153.398,431.566,127.448,416.523,135.248,406.842
		L135.248,406.842L135.248,406.842z M136.767,298.562c-0.083,8.198-0.083,8.198-0.265,8.1c-3.538-2.145-7.341-5.182-7.341-9.172
		C132.88,295.532,131.515,295.72,136.767,298.562L136.767,298.562L136.767,298.562z M147.84,293.081
		c-6.588-3.023,2.382-9.34,4.36-8.288C151.406,287.425,150.027,290.754,147.84,293.081L147.84,293.081L147.84,293.081z
		 M161.742,291.924c-1.17,10.05-5.544,17.377-10.266,26.856l2.075,0.292c0.822,3.51,10.81,40.13,8.358,45.41
		c-5.433-2.34-8.427-5.572-13.135-5.976c0,12.202,19.96,13.972,24.042,22.774c-2.8,3.816-6.533,10.823-10.809,12.3
		c-30.213-16.214-27.33-19.14-22.761-50.577c2.967-2.466,4.429-2.341,8.706-3.037c1.17,2.34,2.354,4.68,3.622,7.132
		c0.083,0,0.195,0,0.376,0.083c2.716-2.925-1.741-8.482-2.646-10.732c-13.345-1.469-20.142-8.301-30.213-15.928
		c-0.098-0.578-0.195-1.066-0.195-1.56l-8.163-1.456c0-0.787,0-1.477,0.098-2.146c4.889,1.358,9.89,2.716,14.876,4.095
		c0,0.488,0.083,0.982,0.181,1.56c1.727,0.397,8.901,3.322,11.353,2.737c-10.726-13.874-37.303-16.506-28.054-36.53
		c3.454-1.56,2.995,4.109,4.736,6.937c1.518-1.665,3.148-3.301,4.792-4.882c0.919,0.494,1.825,1.08,2.716,1.65
		c0.098,1.477,0.195,2.932,0.376,4.395c-0.543,0.306-1.086,0.599-1.629,1.003v1.943c6.533,0,6.449-5.864,9.082,4.395
		c2.716,5.084,7.898,7.995,13.33,11.512c2.452-0.87-1.268-16.889-1.727-18.547c-2.73-1.365-5.446-2.646-8.079-3.914
		c0-1.268,1.741-2.438,2.465-3.315c5.711,1.755,9.333,8.385,14.5,13.671c5.168-1.456,7.453-6.247,10.823-10.559
		C160.92,291.632,161.282,291.715,161.742,291.924L161.742,291.924L161.742,291.924z M162.647,337.703h-0.641
		c-0.558-0.293-1.087-0.564-1.546-0.856c0.167-2.444,1.101-3.803,2.271-5.571h1.462
		C164.193,333.413,164.277,335.272,162.647,337.703L162.647,337.703L162.647,337.703z M165.99,319.546
		c0,1.469-3.162,9.569-4.889,7.724c-4.443-4.785-2.73-17.676,1.463-22.175C164.82,308.034,172.621,316.433,165.99,319.546
		L165.99,319.546L165.99,319.546z M161.101,231.763c2.006-2.152,6.895-8.706,9.263-9.486c0.446,0.411,0.905,0.78,1.365,1.268
		c-1.101,1.093-8.623,9.193-9.542,9.193C161.826,232.348,161.449,232.042,161.101,231.763L161.101,231.763L161.101,231.763z
		 M166.102,218.774c-2.368,4.875-4.36,8.295-9.361,10.635C156.741,225.119,161.199,217.604,166.102,218.774L166.102,218.774
		L166.102,218.774z M176.702,211.245c-4.625-1.163-7.341-18.457-8.065-22.176c0.362-0.459,0.724-0.954,1.086-1.351
		C174.069,191.25,177.9,205.875,176.702,211.245L176.702,211.245L176.702,211.245z M174.181,251.982
		c-2.104-0.481-4.109-0.968-6.101-1.386c-2.173-4.583-4.792-10.433-4.792-14.549c0.167-0.174,9.528-8.866,9.528-5.077
		c-3.998,3.921-5.823,10.175-1.658,16.221c0.836-0.585,1.658-1.177,2.563-1.671c-0.278-6.143,0.892-9.959,2.173-15.127
		c0-7.034-6.17-11.617-8.357-17.091c0.459-0.369,0.919-0.676,1.365-0.989c3.9,1.386,11.213,12.126,12.077,12.126
		c0.362-0.495,0.71-0.975,1.17-1.379c-2.995-10.628-4.792-19.724-5.99-29.481l1.087-1.462h0.459
		C185.868,207.93,185.798,236.833,174.181,251.982L174.181,251.982L174.181,251.982z M202.75,323.648l-1.086,7.334
		c-3.984-2.048-7.884-4.088-11.798-6.06c-0.097,0.098,1.449,3.872,1.546,4.396c3.733,6.352,20.42,13.477,28.221,10.439
		c1.908,1.365,3.454,4.025,5.446,6.854c0.557-0.502,1.184-0.878,1.811-1.281c3.719,5.084,0.362,39.267,7.271,54.102
		c1.546,0,3.524-0.878,5.349-1.463c-3.914-18.08-6.087-16.688,6.812-24.711c3.803,3.427-1.003,18.555-2.187,24.711
		c0.543,0.195,0.822,0.195,1.086,1.365c0.446,0,1.017,0,1.546,0.098c0.627-1.17,1.365-2.354,2.104-3.427
		c0.626,0.126,0.626,0.126,4.081,2.062l0.265,4.694c4.179-2.744,5.363-30.659,4.82-34.685c-1.741-0.766-3.455-1.532-5.084-2.229
		c0.083-1.156,0.265-2.256,0.446-3.329c1.727,0,2.814,1.866,4.346,4.206c0.543-0.181,1.184-0.403,1.825-0.501
		c3.719-10.726,1.727-25.394,3.552-36.015c3.343-3.628,4.708-5.982,6.505-10.175c0.112,0,0.195,0.104,0.376,0.209
		c-2.452,27.72-3.26,56.442-4.541,84.747h4.443l1.379-9.067c6.157,0,12.523,0.083,19.32,1.155l0.279,11.032
		c-0.46-0.069-0.906-0.069-1.365-0.069c-29.851-1.491-65.343-3.329-90.486-20.728c0-15.127,9.709-28.889,6.645-45.785
		c-1.031-0.084-2.006-0.084-2.925-0.084c-1.449,8.371-4.332,37.596-7.605,43.529c-1.268-0.278-2.451-0.57-3.635-0.863
		c-1.101-12.62,0.626-25.408-1.477-36.732c-7.968-16.604-16.047-33.583-22.928-49.595c-1.379-10.447-1.282-20.525-1.003-30.29
		c2.632-1.365,2.8-2.431,6.338-1.651c1.086,2.138,2.354,4.186,3.538,7.529C179.809,300.115,181.16,305.881,202.75,323.648
		L202.75,323.648L202.75,323.648z M209.924,251.578c-20.602,14.661-20.602,14.055-14.779,38.383
		c7.244,8.204,8.887,7.918,6.254,20.211c-2.828,0.877-5.363,2.152-7.619,2.646c-1.546-1.17-3.009-2.34-4.458-3.517
		c-0.725-7.529-3.803-12.794-6.519-18.854c-0.362-0.09-0.655-0.188-0.933-0.188c-0.334-7.034-0.892-13.101-1.797-19.048
		c6.7-6.45,25.143-17.663,23.499-27.336C206.302,240.943,211.358,246.793,209.924,251.578L209.924,251.578L209.924,251.578z
		 M231.514,298.464c-3.078,3.113-7.884,7.515-12.592,6.24c-3.831-2.633-3.831-2.633-4.193-2.633
		c2.716,4.792,7.898,11.896-1.546,13.463c-7.341-2.138-4.443-12.683-7.076-17.475c-24.418-36.432,2.285-53.607,26.689-25.672
		c-1.908,4.2-10.712,5.475-11.798,7.327c2.089,1.365,4.179,2.807,6.254,4.283c0,0.856-5.405,7.87-6.254,8.908
		c5.363,2.556,2.424-4.652,8.623-2.646C226.012,297.35,231.514,294.327,231.514,298.464L231.514,298.464L231.514,298.464z
		 M234.161,312.714c-0.906-1.268-1.825-2.542-2.73-3.698C233.924,302.733,236.529,313.543,234.161,312.714L234.161,312.714
		L234.161,312.714z M235.233,300.7c1.282,0.292,2.104,0.292,3.357,2.64c-0.348,0.48-0.71,1.08-1.059,1.658h-1.198
		c-0.627-0.676-1.254-1.261-1.797-1.839C234.704,302.267,234.969,301.48,235.233,300.7L235.233,300.7L235.233,300.7z
		 M237.156,293.86c0.724,0.488,4.806,2.744,3.092,5.488C237.685,297.385,235.972,296.507,237.156,293.86L237.156,293.86
		L237.156,293.86z M237.783,287.815c1.895,0.683,2.981,1.463,4.722,4.312c-0.279,0.369-0.725,0.856-1.087,0.856
		C239.593,291.221,237.156,289.479,237.783,287.815L237.783,287.815L237.783,287.815z M240.931,280.446
		c1.504,0.571,2.173,0.571,2.925,3.817c-1.198,1.755-1.198,1.755-1.421,1.665c-0.961-0.829-1.922-1.525-2.911-2.25
		C239.524,281.018,239.635,281.839,240.931,280.446L240.931,280.446L240.931,280.446z M241.697,274.742l4.792,3.448
		c0,0.118-0.097,1.839-0.432,1.49c-1.908-0.794-3.719-1.602-5.53-2.417c-0.098-0.453-0.098-0.913-0.098-1.365
		C240.861,275.453,241.265,275.083,241.697,274.742L241.697,274.742L241.697,274.742z M245.875,274.15l-4.081-5.112
		C245.416,262.45,246.809,275.139,245.875,274.15L245.875,274.15L245.875,274.15z M243.745,261.517
		c0.961-0.167,2.034-0.313,3.134-0.313c0.529,0.571,5.405,4.806,1.616,6.846C244.302,265.438,244.97,264.4,243.745,261.517
		L243.745,261.517L243.745,261.517z M246.168,257.992c0.376-0.919,0.738-1.818,1.226-2.598c1.072,0,5.251,3.113,2.995,5.551
		C248.94,259.928,247.491,258.884,246.168,257.992L246.168,257.992L246.168,257.992z M251.712,256.098
		c-1.602-1.337-3.204-2.514-4.819-3.733C253.188,244.153,255.306,254.914,251.712,256.098L251.712,256.098L251.712,256.098z
		 M250.667,242.795c0.738,0.097,1.435,0.202,2.284,0.383c0.446,0.982,0,5.279-1.101,4.109c-1.1-1.567-1.894-2.633-2.089-3.322
		C250.054,243.589,250.319,243.178,250.667,242.795L250.667,242.795L250.667,242.795z M252.952,235.197
		c1.226,1.532,3.984,4.033,3.984,7.25c-0.432,0-0.78,0.132-1.114,0.236c-2.313-0.592-3.761-2.5-4.959-3.698
		c0.529-1.302,1.086-2.619,1.644-3.789H252.952L252.952,235.197L252.952,235.197z M254.4,230.301
		c1.128,0.543,2.229,1.226,3.371,1.901c0,0.522,0,1.072,0.111,1.595c-0.237-0.139-0.501-0.139-0.738-0.139
		c-3.134-1.741-3.134-1.741-3.622-2.403C253.773,230.844,254.01,230.565,254.4,230.301L254.4,230.301L254.4,230.301z
		 M254.206,202.086c0.822,0.871,1.629,1.741,2.451,2.73c-0.181,1.156-0.278,2.34-0.362,3.615c-0.46,0-0.892,0-1.268,0.09
		c-2.646,0-1.811-4.297-1.909-5.474C253.467,202.658,253.843,202.365,254.206,202.086L254.206,202.086L254.206,202.086z
		 M259.108,201.975c-2.271-2.055-2.549-2.535-3.078-4.576c0.181-0.299,0.446-0.599,0.724-0.885c0.905,0.091,1.825,0.286,2.814,0.474
		C259.568,197.963,259.666,202.254,259.108,201.975L259.108,201.975L259.108,201.975z M260.39,208.432
		c1.268-2.758,1.435-2.257,4.067,0.181c0,0.501,0,0.501-0.808,1.853h-0.432C262.201,209.796,261.295,209.114,260.39,208.432
		L260.39,208.432L260.39,208.432z M262.925,195.421c-0.836-1.261-1.546-2.535-2.271-3.803
		C262.828,185.657,264.917,194.356,262.925,195.421L262.925,195.421L262.925,195.421z M266.199,204.225
		c-0.919,0.592-0.919,0.592-1.003,0.383c-2.173-2.723-1.741-2.354-0.738-4.869C265,199.739,266.463,202.47,266.199,204.225
		L266.199,204.225L266.199,204.225z M265.655,185.657c0.279,0.787,0.808,1.86,1.086,3.538c-0.278,0.091-0.474,0.174-0.655,0.369
		C264.458,187.83,265.196,186.743,265.655,185.657L265.655,185.657L265.655,185.657z M253.119,174.047
		c3.441-4.59,12.161-7.808,16.339-1.087C254.93,174.137,254.93,174.137,253.119,174.047L253.119,174.047L253.119,174.047z
		 M221.458,176.199c2.8-1.762,19.599-5.272,21.674-1.846c-7.257,1.539-14.055,2.918-20.755,3.503
		C222,177.271,221.722,176.687,221.458,176.199L221.458,176.199L221.458,176.199z M219.089,168.377
		c2.271-3.211,17.969-5.265,22.789-5.753l2.619,2.834c-8.163,3.803-16.604,3.608-24.488,4.096
		C219.633,169.157,219.368,168.768,219.089,168.377L219.089,168.377L219.089,168.377z M245.221,156.356
		c-0.348,0.703-0.724,1.393-1.086,2.18l-6.449,0.286c-0.153,0.286-0.265,0.578-0.348,0.864c-4.262-1.463-7.355,2.264-11.338,2.264
		c-5.906-0.321-5.906-0.321-6.812-0.606C221.067,156.482,239.956,152.853,245.221,156.356L245.221,156.356L245.221,156.356z
		 M248.592,159.595c1.992,1.358,3.984,2.724,6.073,4.2v2.159c-2.089,1.56-4.082,3.113-6.073,4.785l-1.379-0.884
		C247.129,166.629,246.126,161.343,248.592,159.595L248.592,159.595L248.592,159.595z M268.999,156.482
		c-2.006,1.441-8.804,5.355-9.249,5.146c-3.273-1.838-6.533-3.705-9.695-5.446c1.616-1.762,15.323-0.606,18.944-0.606V156.482
		L268.999,156.482L268.999,156.482z M275.267,158.822c0,1.449-0.278,9.27-1.644,7.808c-2.089-0.892-4.165-1.658-6.254-2.445
		c-0.083-0.696-0.181-1.372-0.181-1.95c2.173-1.567,4.346-3.127,6.519-4.61C274.166,158.042,274.71,158.418,275.267,158.822
		L275.267,158.822L275.267,158.822z M286.243,145.631c-1.895,0.78-3.803,1.567-5.627,2.354c-9.904-1.769-10.991-12.815-2.633-16.513
		c0-3.309,0-6.645,0.098-9.974c-4.541,0-9.083,0-13.624,0.104c-5.084,12.704-27.497-7.821-5.795-12.383
		c4.082,1.734,4.36,0.856,6.254,5.836c4.36,0,8.706,0,13.164,0.098c-0.098-3.886-0.182-7.801-0.182-11.708
		c-19.237-7.71,18.986-28.13,9.166-0.989l-2.452,1.177c-0.111,3.817-0.111,7.634-0.111,11.52c3.649-0.098,7.382-0.098,11.102-0.098
		c2.173-7.042,7.563-6.115,13.163-3.712c5.07,13.776-7.995,19.139-12.717,10.259c-3.9-0.104-7.717-0.104-11.548-0.104
		c0,3.413,0,6.951,0.111,10.454C290.241,134.306,287.872,140.943,286.243,145.631L286.243,145.631L286.243,145.631z
		 M283.806,159.107c0.348,0.578,0.696,1.268,1.072,1.943c-0.725,0.787-1.713,1.859-2.438,1.859
		C275.071,162.318,277.899,158.704,283.806,159.107L283.806,159.107L283.806,159.107z M284.433,170.042l-5.447,1.462
		c-0.361-0.578-0.627-1.08-0.904-1.56C278.791,169.555,285.616,166.239,284.433,170.042L284.433,170.042L284.433,170.042z
		 M282.245,154.817c-1.17-0.501-2.256-0.892-3.357-1.282C277.872,146.871,287.218,152.15,282.245,154.817L282.245,154.817
		L282.245,154.817z M290.422,175.997c0,1.958-0.098,2.445-1.462,4.583c-6.061,0-12.063,0-18.053,0.118
		c-0.627-2.542-0.362-2.744,0.376-4.408C275.712,175.892,286.243,173.747,290.422,175.997L290.422,175.997L290.422,175.997z
		 M290.422,186.354c-0.821-0.195-1.56-0.292-2.271-0.39c0.278-0.683,0.543-1.274,0.905-1.853
		C289.976,184.5,291.146,186.743,290.422,186.354L290.422,186.354L290.422,186.354z M293.515,192.643
		c-3.064-1.149-4.987-2.57-4.5-4.339c1.281-0.376,2.243,0.146,4.332,1.156C292.163,191.089,293.849,192.643,293.515,192.643
		L293.515,192.643L293.515,192.643z M296.802,196.09c-0.293,0-0.432,0.16-0.613,0.334c-1.644-0.676-3.105-1.282-4.61-1.776
		c0.292-0.474,0.571-0.961,0.892-1.275c1.337,0.474,2.828,0.961,4.332,1.616V196.09L296.802,196.09L296.802,196.09z
		 M300.116,199.677c-0.111,0.383-0.236,0.794-0.236,1.289c-1.406,0.132-2.688,0.25-4.012,0.522l-4.262-3.058
		C291.606,195.651,299.476,199.287,300.116,199.677L300.116,199.677L300.116,199.677z M303.753,205.067l-0.433,0.885
		c-2.493,0-5.001,0-7.368,0.139l-0.989-1.024C298.194,203.417,298.724,203.125,303.753,205.067L303.753,205.067L303.753,205.067z
		 M305.702,209.135c-1.031,0.947-2.424,2.041-3.426,2.041c-0.906-0.55-1.77-1.093-2.521-1.504c0.501-0.955,1.002-1.901,1.615-2.73
		C302.276,206.941,303.78,207.881,305.702,209.135L305.702,209.135L305.702,209.135z M309.394,214.08
		c-1.365,0.982-2.188,1.867-3.621,1.867c-1.463,0-1.923-1.867-2.006-2.159c2.089-1.072,2.549-2.054,5.445-1.268
		C309.212,213.007,309.296,213.502,309.394,214.08L309.394,214.08L309.394,214.08z M313.935,218.976
		c-4.917,2.73-4.917,2.73-5.363,2.73c-2.089-1.762-1.727-1.762-0.543-3.336c1.908,0,3.816,0.118,5.725,0.209
		C313.753,218.669,313.837,218.774,313.935,218.976L313.935,218.976L313.935,218.976z M316.608,224.311
		c-2.186,0.843-5.711,2.577-6.811,2.577c-0.46-0.877-0.795-1.734-1.101-2.423C311.733,223.434,313.141,222.41,316.608,224.311
		L316.608,224.311L316.608,224.311z M319.868,229.005c-0.125,0.654-0.209,1.441-0.209,2.214c-2.187,0.112-4.346,0.349-6.393,0.55
		c-0.529-0.662-1.045-1.212-1.561-1.769C313.879,227.682,316.247,227.884,319.868,229.005L319.868,229.005L319.868,229.005z
		 M323.072,236.548h-7.299l0.362-1.985c2.229-0.146,4.568-0.279,6.937-0.279V236.548L323.072,236.548z M325.594,238.825
		c-1.143,0.829-1.143,0.829-5.085,2.243c-0.904-0.571-1.811-1.121-2.744-1.546C319.854,238.825,322.083,238.672,325.594,238.825
		L325.594,238.825L325.594,238.825z M326.179,247.371c-1.463-0.766-2.911-1.546-4.263-2.347
		C321.916,233.365,332.378,250.617,326.179,247.371L326.179,247.371L326.179,247.371z M331.848,248.625
		c0,0.558-0.794,4.722-1.685,4.312c-2.188-0.836-3.357-1.957-4.123-2.647C326.443,249.607,329.926,247.915,331.848,248.625
		L331.848,248.625L331.848,248.625z M336.389,257.943c-1.281-0.118-2.549-0.118-3.733-0.118c-0.891-0.738-1.727-1.365-2.535-1.999
		c3.273-1.971,2.452-2.598,6.018,0.251C336.138,256.704,336.249,257.345,336.389,257.943L336.389,257.943L336.389,257.943z
		 M339.328,261.767c-1.546,0.327-3.079,0.766-4.472,1.212c-1.532-0.62-2.925-1.073-4.29-1.504c0.265-0.752,0.669-1.511,1.073-2.089
		C334.856,259.093,335.413,258.954,339.328,261.767L339.328,261.767L339.328,261.767z M335.413,268.801l-2.506-2.632
		C340.54,261.753,343.549,265.277,335.413,268.801L335.413,268.801L335.413,268.801z M343.507,267.646
		c0,3.594-5.015,2.709-3.203,2.465c-0.572-0.153-2.717,0.585-3.219,0.411l3.511-3.281
		C341.794,267.241,342.155,267.52,343.507,267.646L343.507,267.646L343.507,267.646z M347.198,274.123
		c-1.77,0.898-1.77,0.898-2.717,0.898c-4.527-1.477-4.527-1.477-4.777-1.908C340.901,271.838,348.368,269.867,347.198,274.123
		L347.198,274.123L347.198,274.123z M350.235,277.556c-5.949,1.734-5.949,1.734-7.217,1.734c-0.389-0.404-0.752-0.808-1.142-1.08
		c2.146-0.655,5.196-2.723,8.218-2.18C350.095,276.47,350.095,276.985,350.235,277.556L350.235,277.556L350.235,277.556z
		 M354.274,284.792c-4.067-0.599-6.115-1.483-8.023-2.953C354.859,279.652,354.413,284.918,354.274,284.792L354.274,284.792
		L354.274,284.792z M351.015,288.324c-0.334-0.334-0.641-0.669-0.85-1.003c3.148-1.128,3.566-1.707,7.647,0.104
		C356.141,289.236,352.687,288.324,351.015,288.324L351.015,288.324L351.015,288.324z M355.026,301.689
		c5.279,0,10.085-3.42,15.894-0.3c-0.892,5.53,1.964,10.795,0.349,17.084c-2.354,0-3.971-1.853-5.07-2.737v-0.69
		c1.824-1.553,1.908-1.65,4.722-1.832c-0.362-0.787-0.71-1.567-1.087-2.256c-3.552-0.689-7.535-1.365-9.986,0.09
		c4.178,4.109,9.43,13.783,13.608,20.128c1.365-0.105,2.729-0.105,4.095-0.105l-2.729-2.639l3.816-4.096
		c0.362,0.091,1.003,0.376,1.992,1.456c-2.73,6.652-0.362,8.023-6.714,12.209c-0.362,3.524-2.646,26.075-5.893,22.565
		c-6.463-8.205-11.088-17.982-19.069-7.996l-0.989-1.086c2.535-2.047,5.07-4.109,7.717-6.045c-1.002-0.892-1.992-1.658-2.91-2.438
		l2.451-1.77c-3.26-14.055-4.18-25.296-12.718-35.646c-2.646-1.957-13.79-9.869-14.417-11.241c1.797,0,5.279,1.574,7.996,1.574
		c-5.461-20.887-20.24-41.12-23.611-59.464c11.074,8.399,18.693,37.386,31.578,45.702c-0.084,0.669-0.181,1.351-0.181,2.131
		C349.051,287.425,350.416,295.128,355.026,301.689L355.026,301.689L355.026,301.689z M372.466,322.875
		c-0.543-0.501-1.1-0.982-1.546-1.463c0.446-1.56,0.641-1.379,2.438-0.78c0,0.585,0.098,1.17,0.195,1.741
		C372.73,322.785,373.093,322.875,372.466,322.875L372.466,322.875L372.466,322.875z M361.56,298.269
		c-1.436,0.292-2.884,0.689-4.248,1.08c-0.377-0.501-0.738-0.989-1.088-1.379c0.99-0.683,1.979-1.365,3.079-1.964
		C360.026,296.688,360.765,297.489,361.56,298.269L361.56,298.269L361.56,298.269z M378.177,268.76
		c24.154,3.037,23.861,7.334,23.067,32.929c-1.365,11.902-8.455,18.164-18.707,19.912l-5.53-0.878
		c-0.098-1.762-0.098-3.426-0.098-5.077c1.449-0.696,2.897-1.365,4.346-1.964c0-4.381-3.816-3.252-3.816-4.667
		c3.816-4.109,9.444,3.51,8.191-4.694h-8.818c0-4.729,2.452-3.545,1.908-7.034c-4.541-0.286-8.984-0.501-13.441-0.683
		C365.278,284.208,371.644,278.357,378.177,268.76L378.177,268.76L378.177,268.76z M422.919,277.953
		c-3.9,5.648-8.163,32.706-18.875,32.706h-0.265c0-30.86,5.892-40.911-24.404-45.027c-0.821-1.253-1.379-2.528-1.379-3.092
		c12.16-7.835,49.658-3.043,63.072,1.553C434.73,268.585,428.713,273.064,422.919,277.953L422.919,277.953L422.919,277.953z
		 M444.982,298.06c-0.181,0-0.376,0-0.543,0.104c-2.006-2.632-3.19-4.882-4.081-6.944c0.083-0.083,0.166-0.083,0.25-0.083
		C441.347,292.001,445.874,295.532,444.982,298.06L444.982,298.06L444.982,298.06z M455.764,313.591v-2.431
		c-1.072-0.599-2.075-1.184-3.078-1.671v-1.17c1.281-0.39,2.354,0.202,4.179,1.274c-0.808,7.125-3.455,7.703-8.817,10.057
		c-0.362-0.195-0.71-0.383-1.087-0.495C452.825,305.387,448.743,317.38,455.764,313.591L455.764,313.591L455.764,313.591z
		 M478.552,297.58c1.449,19.042-22.885,23.436-30.505,38.299c3.469,0,21.702-8.985,22.705-7.919
		c-8.817,7.132-20.435,18.345-31.313,19.822c-1.365-1.477-2.73-2.842-4.081-4.193c-2.911,2.034-9.792,24.893-9.792,29.183
		l2.98-0.292c1.908-6.729,3.9-13.373,5.906-20.018c2.256,0.307,4.625,0.586,6.979,0.976c1.727,12.495-0.362,29.21-1.17,42.986
		c-1.728,1.448-9.988,8.386-11.548,7.605c-1.908-3.413-3.803-6.825-5.628-10.267c4.109-3.705,8.553-7.995,12.453-12.188
		c-5.377-5.768-24.877,17.955-30.324,12.09c7.09-16.408,19.808-54.574,31.146-69.813c-1.741-9.57-14.793-20.114-12.077-25.386
		c4.708,2.528,13.972,11.415,18.958,11.129c2.563-5.37,4.276-9.862,9.361-12.592c0.891,0.488,1.797,0.968,2.799,1.56l0.558,4.889
		c-8.344,4.297-10.894,9.765-13.261,19.898c10.447,6.756,17.704-17.468,19.069-17.468c1.448,1.268,1.714,1.755,4.429,1.08
		c1.199-4.694-1.894-5.676,1.199-8.991l2.896,0.592c0,1.358,0,2.828,0.07,4.291c2.827-1.95,4.025-3.023,5.906-6.248
		C477.007,296.897,477.73,297.189,478.552,297.58L478.552,297.58L478.552,297.58z M434.73,313.494c0.808,0,1.63,0,2.438,0.097
		c-0.46-4.485-8.344-10.844-11.06-10.844C428.824,306.07,431.903,309.301,434.73,313.494L434.73,313.494L434.73,313.494z
		 M436.527,393.289c-0.544-0.893-0.989-1.756-1.448-2.646c-3.998,0.584-4.263,0.584-5.809,4.582
		c0.445,0.697,1.002,1.463,1.546,2.257C432.446,397.481,435.44,395.127,436.527,393.289L436.527,393.289L436.527,393.289z
		 M377.007,275.599v2.64c7.258-0.083,14.5-0.195,21.785-0.195C390.226,271.991,385.63,273.753,377.007,275.599L377.007,275.599
		L377.007,275.599z M376.548,282.94c-0.084,0.871-0.195,1.755-0.195,2.625c3.928-0.286,4.902-2.869,7.271,1.463
		c-0.893,0.787-1.812,1.56-2.73,2.451c0.361,0.676,0.738,1.449,1.1,2.236c3.093,0,6.157,0.111,9.348,0.209v-2.152l-2.201-0.292
		c-1.532-2.556-0.516-3.329,0.098-5.188c1.1-0.083,2.27-0.202,3.469-0.202v-2.138C384.431,280,383.722,280.495,376.548,282.94
		L376.548,282.94L376.548,282.94z M382.899,293.081c-0.641,0.884-1.087,1.386-1.087,3.029c3.44-0.104,6.896-0.188,10.433-0.188
		C389.056,294.947,385.978,293.965,382.899,293.081L382.899,293.081L382.899,293.081z M367.103,301.884
		c-0.724,1.17-1.434,2.34-2.089,3.594l-6.073-0.286l-0.543,1.191l1.908,1.734c3.26-0.188,6.533-0.299,9.904-0.369l-2.48-5.864
		H367.103L367.103,301.884L367.103,301.884z M286.062,138.213c-5.975-11.917-16.437,1.163-5.279,5.167
		C284.265,142.211,284.502,141.925,286.062,138.213L286.062,138.213L286.062,138.213z M286.062,97.581
		c-3.26-6.052-7.535-6.247-10.419,0c1.435,3.134,0.989,3.023,5.14,4.59C283.722,101.384,284.696,100.604,286.062,97.581
		L286.062,97.581L286.062,97.581z M297.692,118.19c1.338,3.022,1.087,3.705,5.168,5.161
		C314.646,120.251,302.485,105.583,297.692,118.19L297.692,118.19L297.692,118.19z M262.089,118.768
		c0-12.202-18.317-0.78-4.792,4.583C260.028,123.072,261.003,120.913,262.089,118.768L262.089,118.768L262.089,118.768z
		 M219.368,274.533c-1.532-0.78-2.271-0.292-3.009-0.292c-0.627-1.755-1.268-3.419-1.797-5.07c-4.736-1.678-9.263,4.095-9.263,8.873
		c0.808-0.787,1.63-1.567,2.452-2.243c0.724,0.592,1.462,1.275,2.173,1.958c0,0.884-1.365,2.242-2.076,3.231
		c0.794,0.376,1.713,0.766,2.619,1.253C214.27,280.098,216.359,278.155,219.368,274.533L219.368,274.533L219.368,274.533z
		 M198.488,273.956c3.733,0,10.726-6.937,15.155-9.291c-0.543-0.968-1.086-1.846-1.546-2.737
		C205.675,261.154,200.758,268.676,198.488,273.956L198.488,273.956L198.488,273.956z M199.031,297.58
		c-9.263-13.853-10.252-15.134-10.6-30.275c-11.617,9.089,4.43,29.774,7.968,42.185c0,0.104,0,0.195,0.083,0.313
		C199.226,308.605,199.031,299.543,199.031,297.58L199.031,297.58L199.031,297.58z M209.297,345.148
		c-4.276,6.143-4.276,26.257-4.276,33.891c0.083,0,0.195,0,0.376,0.069c0,6.06-3.455,8.121,3.538,11.534
		c0.181,0,0.446,0,0.738,0.097c1.435-14.431,3.427-29.962,2.159-43.85C210.927,346.305,210.105,345.733,209.297,345.148
		L209.297,345.148L209.297,345.148z M215.008,344.939c0.195,15.629-0.445,32.428,1.352,48.725c1.086-0.083,2.284-0.166,3.454-0.166
		c-1.003-16.242-1.978-32.428-2.911-48.559H215.008L215.008,344.939L215.008,344.939z M218.644,344.174
		c0,16.799,3.162,34.154,5.53,51.455c0.822,0.376,1.713,0.863,2.633,1.352c0.195,0,0.348,0,0.543,0.097
		c-1.351-18.038-2.633-36.397-6.895-53.294C219.813,343.881,219.187,343.965,218.644,344.174L218.644,344.174L218.644,344.174z
		 M150.487,313.215c3.719-4.109,7.341-7.529,6.254-12.885c-3.538,1.846-5.167,8.567-6.338,12.571
		C150.403,313.013,150.403,313.111,150.487,313.215L150.487,313.215L150.487,313.215z M136.056,299.543
		c-3.761-1.003-0.501-3.217-4.722,0.188c0.641,0.773,1.365,1.553,2.089,2.34C133.967,302.072,135.513,300.115,136.056,299.543
		L136.056,299.543L136.056,299.543z M175.532,470.625c0,2.73,0.626,3.914,2.368,6.937c0.822-0.585,1.713-1.073,2.619-1.574
		C180.24,469.747,179.53,469.064,175.532,470.625L175.532,470.625L175.532,470.625z M278.178,477.172
		c-1.017,1.156-2.02,2.451-3.009,3.719c1.087,0.961,2.188,2.048,3.357,3.106c0.543,0,0.543,0,4.541-1.839
		c0.376-1.379-0.543-3.412-0.543-3.538L278.178,477.172L278.178,477.172L278.178,477.172z M348.132,479.902
		c0,2.145,1.908,3.328,4.457,3.997c1.184-0.181,2.354-0.278,3.552-0.376c0.251-1.365,0.167-2.744,0.167-3.135
		C353.132,478.829,350.499,478.328,348.132,479.902L348.132,479.902L348.132,479.902z M433.532,439.563
		c0.822-3.204,0.111-3.135-1.351-4.987c-3.538,0.195-4.096,2.939-5.266,2.939c1.017,1.087,1.992,2.257,2.995,3.427
		C431.081,440.467,432.278,439.966,433.532,439.563L433.532,439.563L433.532,439.563z M422.919,427.848
		c1.991-4.276,1.531-3.413-0.461-6.324h-4.164c-0.738,1.143-1.365,2.424-2.006,3.691c0.808,0.975,1.629,2.062,2.549,3.135
		C420.202,428.141,421.567,427.945,422.919,427.848L422.919,427.848L422.919,427.848z M405.757,415.659
		c0.46-1.394,0.934-2.646,1.365-3.914c-3.454-5.279-2.994-2.354-8.078,0.767c0.835,0.961,1.629,2.061,2.451,3.147H405.757
		L405.757,415.659L405.757,415.659z M386.521,329.715c-3.454,5.558-3.789,4.917,1.004,10.196c1.615-0.209,3.356,0.153,5.07,0.056
		c2.006-3.225,2.91-4.986,2.632-8.789C391.159,329.115,390.421,329.318,386.521,329.715L386.521,329.715L386.521,329.715z
		 M394.795,331.957c-0.376,3.023-0.725,4.291-2.55,6.938l-5.167-0.362C382.439,330.237,387.704,328.838,394.795,331.957
		L394.795,331.957L394.795,331.957z M393.43,332.626l-5.46-1.448l-1.895,3.225c1.629,1.162,3.357,2.34,5.084,3.601h0.543
		C393.249,335.564,393.43,334.98,393.43,332.626L393.43,332.626L393.43,332.626z M388.346,332.055
		c1.532,0.285,3.093,0.697,4.624,1.066c0,1.281-0.445,2.354-1.463,3.92h-0.432l-4.08-2.924L388.346,332.055L388.346,332.055
		L388.346,332.055z M296.969,423.167c-0.558,1.268-1.101,2.633-1.56,3.998c1.364,0.976,2.813,2.048,4.275,3.134
		c1.17,0,3.539-1.365,5.168-1.949c0-1.574-2.633-4.695-2.717-4.904L296.969,423.167L296.969,423.167L296.969,423.167z
		 M314.478,461.236c-1.379,0.404-2.744,0.905-3.998,1.393c-0.277,1.156-0.459,2.34-0.654,3.607c0.934,0.878,1.825,1.854,2.828,2.828
		C318.838,468.285,316.47,464.273,314.478,461.236L314.478,461.236L314.478,461.236z M282.719,444.465
		c-2.368-0.111-4.638-0.195-6.896-0.195c-0.292,1.268-0.292,2.132-0.292,4.109l3.26,0.864
		C282.245,449.243,283.443,447.475,282.719,444.465L282.719,444.465L282.719,444.465z M231.709,417.4
		c0,3.314,0.278,3.705,3.092,6.463c1.17,0,3.524-2.465,4.708-3.426C239.51,412.721,234.342,416.523,231.709,417.4L231.709,417.4
		L231.709,417.4z M215.008,432.723h-5.182c0.195,4.207,0.195,4.207,0.446,5.195c0.919,0.377,0.919,0.377,3.371,0.684
		C217.836,438.602,215.732,434.575,215.008,432.723L215.008,432.723L215.008,432.723z M236.25,456.291l-0.543,2.034
		c0.46,0.683,0.989,1.379,1.546,2.131c1.532,0,3.064,0.111,4.625,0.209c-0.181-3.022-0.279-3.231-1.365-4.987L236.25,456.291
		L236.25,456.291z M210.467,471.307c1.184-0.111,1.184-0.111,5.893-1.56l-4.527-5.182c-1.449,0-2.006,0.892-3.092,1.365v4.123
		C209.297,470.43,209.826,470.848,210.467,471.307L210.467,471.307L210.467,471.307z M169.445,448.379
		c-2.452-1.086-2.535-0.501-4.36,0.084c-0.181,2.73,0.822,3.9,2.563,6.923C171.813,453.938,170.364,452.461,169.445,448.379
		L169.445,448.379L169.445,448.379z M173.624,435.174c0,2.257,0.822,3.232,2.354,5.768c0.835-0.475,1.727-0.976,2.632-1.379
		C178.61,434.688,177.315,433.586,173.624,435.174L173.624,435.174L173.624,435.174z M158.204,408.109
		c0.278,3.344,0.641,3.83,3.245,7.258c0.836-0.502,1.741-0.989,2.633-1.394C164.082,407.636,163.19,406.188,158.204,408.109
		L158.204,408.109L158.204,408.109z M178.987,398.359c3.343-4.291,3.259-3.594,1.086-7.133c-1.198-0.098-2.285-0.098-3.371-0.098
		c-1.811,4.207-2.089,3.135,0.459,7.23H178.987L178.987,398.359L178.987,398.359z M215.078,324.63
		c1.56,0.717,2.271,2.814,1.017,6.547c-0.71,0.299-1.365,0.584-1.992,0.953c-4.276-0.452-5.084-2.918-4.541-6.337
		c1.295-0.871,2.619-1.365,3.761-1.441c-1.128-0.056-2.452,0.083-4.026,0.571c-1.268,4.192-0.083,7.208,4.43,7.912
		C218.713,331.505,219.284,326.002,215.078,324.63L215.078,324.63L215.078,324.63z M213.323,324.352
		c0.641,0.028,1.24,0.111,1.755,0.278C214.563,324.401,213.977,324.303,213.323,324.352L213.323,324.352L213.323,324.352z
		 M413.293,481.462c9.542-1.769,20.239-8.106,28.138-14.946c-16.172-5.279-30.129-12.091-44.839-18.93
		c-9.333-7.522-27.845-20.699-39.101-20.699C364.024,447.961,394.53,476.1,413.293,481.462L413.293,481.462L413.293,481.462z
		 M367.103,435.843c-2.074-2.535-5.25-5.056-5.892-6.435c8.804,0,25.366,13.33,31.563,17.244c4.402,2.785,5.392,3.454,10.824,6.087
		c11.812,3.218,22.064,13.065,35.353,13.972c-5.739-0.391-19.46,10.141-25.003,10.141c-6.269-0.697-21.424-7.396-22.51-11.492
		C382.648,453.533,369.917,451.291,367.103,435.843L367.103,435.843L367.103,435.843z M175.072,494.443
		c-13.707,1.77-27.121,5.475-38.918,12.021c0,0.794,1.003,1.756,1.811,2.939c7.62-1.574,27.121-9.277,34.197-7.828
		c6.561,7.424,11.422,11.826,19.975,17.969c17.342,6.17,24.154-12.105,36.3-12.105c26.229,28.222,24.404,15.644,55.829,2.452
		c0.349-0.111,22.762,16.479,33.752,17.481c12.243-0.892,19.695-11.924,31.744-11.924c24.418,10.363,28.055,8.887,50.453-5.558
		c13.162-3.816,28.43,7.132,45.396,1.365c-0.194-0.501-0.362-0.892-0.544-1.268c-15.99-1.866-32.315-7.912-47.568-7.425
		c-15.601,13.387-25.686,21.188-43.641,8.581c0.084-0.181,0.167-0.293,0.278-0.39c-0.111-0.07-0.194-0.195-0.194-0.279
		c-0.349,0-0.711,0-0.989,0.084c-6.812-7.299-7.898-4.374-15.142-0.502c-18.164,17.314-31.133,14.389-46.287-3.872
		c-18.066-13.483-28.305,27.315-53.74,4.081c-10.977-12.299-9.152-11.617-23.68-1.936
		C193.682,519.656,188.598,509.892,175.072,494.443L175.072,494.443L175.072,494.443z M151.476,521.411
		c24.878-3.899,15.239-9.179,37.47,7.425c14.904,7.424,20.88-0.976,36.773-3.9c11.534,9.848,25.407,12.689,40.827,11.798
		c21.688-13.19,14.347-11.714,33.765,3.134c1.908,0.976,4.806,0.893,7.258,2.619c14.611,0,20.949-1.059,33.569-9.959
		c13.345-6.436,27.497,8.232,46.747,0.32c15.615-7.244,22.594-5.391,39.769-5.768c-0.111-1.365-0.194-2.744-0.194-3.997
		c-26.592-4.694-23.681-9.306-44.115,5.07c-18.233,7.995-29.656-9.18-44.824-2.257c-29.949,21.98-29.949,0.683-57.166-4.777
		c-18.61,8.984-22.873,12.801-42.667,4.275c-3.803-2.618-10.35-8.371-13.428-8.984c-22.064,8.901-25.839,16.033-45.104,0.795
		C171.813,511.257,153.287,507.719,151.476,521.411L151.476,521.411L151.476,521.411z M202.848,539.186
		c0.543,1.072,1.086,2.158,1.713,3.301c4.917,0,7.814-0.278,13.163-2.131c0.195,0.195,0.362,0.404,0.543,0.696
		c13.804,0,15.894,3.413,29.238,7.299c10.781,2.257,23.137-4.499,34.281-5.558c13.357,5.084,16.896,7.898,33.318,9.765
		c10.336-0.293,16.701-1.365,26.494-6.839c10.99-5.085,14.348,3.036,28.611,0.598c0.432-0.988,0.891-1.852,1.434-2.758
		c-9.527-3.301-28.861-12.773-35.046-1.351c-11.422,5.669-24.947,5.976-36.647,3.511c-6.993-3.232-11.423-8.985-18.248-8.985
		c-10.517,2.744-28.945,11.534-38.292,3.413C222.084,529.699,225.176,531.455,202.848,539.186L202.848,539.186L202.848,539.186z
		 M263.831,554.229c-0.278,0.864-0.71,2.73-1.546,3.594c3.538,5.768,14.152-0.947,17.871-3.008c5.809,0,11.883,3.314,18.443,5.752
		c0.627-0.278,1.352-1.964,1.797-2.827C286.062,546.414,280.253,550.9,263.831,554.229L263.831,554.229L263.831,554.229z"/>
	<path fill="#FFFFFF" d="M199.602,579.984c3.329,1.059,6.714,2.591,9.166,4.221l-3.357,10.461l-4.137-1.323
		c-0.292-1.895-0.417-4.095-0.306-5.711c-1.003-0.976-2.716-2.104-4.987-2.827c-2.814-0.906-5.558-0.559-6.533,2.521
		c-2.354,7.327,16.033,10.183,12.216,22.063c-1.964,6.158-8.942,9.18-18.609,6.088c-2.814-0.905-6.143-2.41-8.483-3.732
		l3.218-10.058l4.082,1.31c0.334,1.978,0.474,4.332,0.334,5.863c0.683,0.655,2.41,1.561,3.9,2.049
		c3.134,1.002,5.46,0.236,6.324-2.452c2.131-6.673-16.283-10.252-12.564-21.897C181.912,580.151,189.448,576.725,199.602,579.984
		L199.602,579.984L199.602,579.984z"/>
	<path fill="#FFFFFF" d="M169.528,569.244l-1.671,2.996c-1.825,0.152-3.816,0.068-5.642-0.32l-12.578,22.523
		c1.198,1.226,2.396,2.994,3.246,4.568l-1.644,2.939l-16.604-9.291l1.644-2.939c1.783-0.098,3.928,0,5.6,0.391l12.592-22.523
		c-1.295-1.352-2.41-2.996-3.231-4.639l1.686-2.995L169.528,569.244L169.528,569.244z"/>
	<path fill="#FFFFFF" d="M105.732,538.322l7.731-7.982c4.75,1.436,9.681,4.207,13.929,8.33c8.511,8.246,8.692,18.749,1.017,26.688
		c-8.608,8.873-20.239,8.776-30.129-0.808c-2.884-2.786-5.767-6.254-7.787-9.458l7.689-7.94l3.162,3.064
		c-0.432,1.881-1.198,3.72-2.062,5.266c0.933,1.867,2.396,3.956,4.527,6.018c5.349,5.182,11.771,3.469,16.966-1.908
		c5.015-5.168,6.101-12.146,0.432-17.648c-1.24-1.198-2.563-2.285-3.886-2.995l-5.307,5.46c0.668,1.213,1.128,2.912,1.504,4.43
		l-2.298,2.368l-11.534-11.199l2.298-2.354C103.169,537.75,104.492,537.89,105.732,538.322L105.732,538.322L105.732,538.322z"/>
	<path fill="#FFFFFF" d="M105.272,513.848l-2.925,1.797c-1.672-0.752-3.357-1.797-4.764-3.023l-22.008,13.484
		c0.459,1.644,0.641,3.775,0.613,5.572l-2.87,1.754l-9.945-16.213l2.87-1.77c1.616,0.795,3.426,1.922,4.694,3.078l22.009-13.482
		c-0.46-1.812-0.627-3.789-0.543-5.614l2.925-1.797L105.272,513.848L105.272,513.848z"/>
	<path fill="#FFFFFF" d="M87.944,483.063l-3.218,1.226c-1.407-1.017-2.939-2.34-4.109-3.857l-24.126,9.137
		c0.14,1.713-0.069,3.9-0.446,5.586l-3.148,1.197l-6.742-17.787l3.134-1.197c1.42,1.016,3.037,2.59,4.053,3.899l24.641-9.347
		l-3.176-7.801c-1.588,0.098-3.998,0.098-6.101-0.027l-1.546-4.054l10.531-3.997L87.944,483.063L87.944,483.063z"/>
	<path fill="#FFFFFF" d="M73.527,440.621l-3.357,0.696c-1.226-1.226-2.535-2.759-3.455-4.458l-25.254,5.279
		c-0.139,1.699-0.668,3.831-1.323,5.447l-3.287,0.682l-3.886-18.623l3.287-0.683c1.24,1.212,2.591,3.022,3.399,4.472l25.797-5.391
		l-1.922-8.205c-1.574-0.153-3.97-0.516-6.018-0.961l-0.892-4.263l11.018-2.298L73.527,440.621L73.527,440.621z"/>
	<path fill="#FFFFFF" d="M30.792,364.998l16.757-1.379c10.266-0.822,16.088,5.223,16.924,14.932
		c1.017,11.813-4.653,16.396-12.927,17.105l-17.983,1.547c-0.376,1.226-1.337,2.842-2.075,3.816l-3.343,0.293l-1.449-16.73
		l3.343-0.277c1.003,1.225,2.159,2.646,2.772,4.108l16.548-1.421c6.227-0.529,9.723-3.022,9.152-9.652
		c-0.46-5.363-3.9-7.787-9.5-7.23l-17.635,1.714c-0.278,1.546-1.295,3.218-2.02,4.541l-3.343,0.278l-1.281-14.82l3.357-0.293
		C28.995,362.449,30.276,363.786,30.792,364.998L30.792,364.998L30.792,364.998z"/>
	<path fill="#FFFFFF" d="M62.063,305.735l-3.426-0.063c-1.017-1.135-2.09-2.667-2.34-3.991l-21.535,3.092v0.07l27.134,10.113
		l-0.111,6.122l-27.845,9.556v0.068l21.646,2.641c0.641-1.505,1.63-2.807,2.605-3.908l3.426,0.07l-0.25,13.943l-3.427-0.056
		c-0.808-0.934-1.686-2.006-2.354-3.134l-25.783-4.75c-0.655,1.56-1.574,3.051-2.494,4.415l-3.357-0.056l0.265-14.737l24.809-8.901
		l0.014-0.125l-24.474-9.41l0.265-14.744l3.44,0.063c0.794,1.4,1.727,2.863,2.243,4.583l25.964-4.464
		c0.571-1.038,1.49-2.145,2.465-2.981l3.427,0.063L62.063,305.735L62.063,305.735z"/>
	<path fill="#FFFFFF" d="M49.248,261.872c-0.334,2.814-2.911,4.757-5.85,4.409c-2.925-0.355-4.973-2.855-4.639-5.662
		c0.334-2.807,2.925-4.82,5.864-4.472C47.549,256.502,49.596,259.065,49.248,261.872L49.248,261.872L49.248,261.872z"/>
	<path fill="#FFFFFF" d="M45.919,197.399l16.339,3.991c9.987,2.465,13.609,10.036,11.338,19.515
		c-2.772,11.526-9.597,14.083-17.663,12.146l-17.551-4.214c-0.752,1.038-2.173,2.257-3.19,2.96l-3.259-0.787l3.914-16.326
		l3.273,0.78c0.557,1.49,1.198,3.204,1.309,4.792l16.158,3.879c6.073,1.456,10.183,0.209,11.729-6.261
		c1.268-5.251-1.24-8.629-6.728-9.876l-17.272-3.942c-0.752,1.379-2.243,2.64-3.343,3.664l-3.273-0.78l3.468-14.473l3.273,0.787
		C45.014,194.404,45.808,196.083,45.919,197.399L45.919,197.399L45.919,197.399z"/>
	<path fill="#FFFFFF" d="M72.664,134.884l28.444,14.473l-3.566,6.979l-33.514,4.297l19.891,8.866
		c1.142-1.038,2.591-1.929,4.262-2.925l3.051,1.553l-7.244,14.264l-3.064-1.561c-0.167-1.936-0.278-3.837-0.056-5.342
		l-22.774-11.965c-1.268,1.282-2.911,2.368-4.513,3.399l-2.995-1.525l6.756-13.261l29.906-3.845L69.85,140.4
		c-1.086,1.072-2.563,1.874-4.081,2.577l-2.995-1.525l6.352-12.501l3.009,1.525C72.413,132.029,72.705,133.429,72.664,134.884
		L72.664,134.884L72.664,134.884z"/>
	<path fill="#FFFFFF" d="M114.8,130.343l-2.549-2.305c0.265-1.818,0.808-3.727,1.588-5.412L94.77,105.235
		c-1.463,0.898-3.455,1.658-5.182,2.131l-2.494-2.264l12.815-14.069l2.494,2.271c-0.32,1.762-0.892,3.824-1.644,5.363l19.083,17.384
		c1.588-0.94,3.455-1.658,5.237-2.083l2.535,2.312L114.8,130.343L114.8,130.343z"/>
	<path fill="#FFFFFF" d="M155.488,57.346l6.059,33.841l-6.909,4.221l-27.413-20.915c-1.087,0.104-2.382-0.237-3.65-0.432
		l-1.755-2.863l14.11-8.608l1.755,2.876c-0.599,1.407-1.282,2.703-2.215,4.082l19.264,15.023l0.111-0.063l-5.6-23.359
		c-1.379,0.278-3.245,0.125-4.652,0.098l-1.741-2.87l12.021-7.334l1.755,2.87C156.351,54.971,156.101,56.329,155.488,57.346
		L155.488,57.346L155.488,57.346z"/>
	<path fill="#FFFFFF" d="M192.303,76.262l-0.947-3.308c1.156-1.247,2.577-2.73,4.207-3.754l-7.048-24.76
		c-1.727-0.077-3.928-0.592-5.544-0.989l-0.933-3.232l27.357-7.786L212,41.543l-4.124,1.17c-1.017-0.919-2.507-2.563-3.204-3.796
		l-7.856,2.229l2.995,10.503l6.463-1.838c0.069-1.17,0.599-2.459,0.961-3.343l3.413-0.975l2.939,10.294l-3.427,0.975
		c-0.725-0.648-2.02-1.567-2.619-2.466l-6.449,1.839l3.245,11.422l7.856-2.235c-0.056-1.63,0.32-3.664,0.71-5.203l4.179-1.184
		l2.702,9.507L192.303,76.262L192.303,76.262z"/>
	<path fill="#FFFFFF" d="M275.991,61.42l-0.474-4.025c-5.001,1.128-5.6-12.599-12.063-12.996c4.875-1.811,7.591-5.426,7.201-10.001
		c-0.641-7.25-6.017-9.813-15.531-8.978c-5.251,0.459-11.464,1.282-12.968,1.414l-4.652,0.404l0.292,3.357
		c1.588,0.752,3.441,1.553,5.266,1.943l2.243,25.713c-1.839,0.717-3.594,1.832-4.833,2.904l0.306,3.42l17.718-1.553l-0.307-3.42
		c-1.184-0.717-2.73-1.686-4.22-2.11l-0.836-9.569l2.104-0.188c6.421-0.564,6.324,15.573,14.849,14.828
		C272.119,62.382,274.403,62.047,275.991,61.42L275.991,61.42L275.991,61.42z M255.696,42.525l-3.009,0.265l-1.017-11.485
		c0.641-0.195,1.825-0.369,2.34-0.411c4.931-0.432,7.466,1.477,7.814,5.377C262.104,39.419,260.418,42.114,255.696,42.525
		L255.696,42.525L255.696,42.525z"/>
	<path fill="#FFFFFF" d="M307.123,62.758c-3.496-0.16-7.159-0.745-9.945-1.692l0.515-10.977l4.347,0.202
		c0.767,1.755,1.462,3.844,1.782,5.446c1.227,0.668,3.162,1.316,5.531,1.421c2.967,0.139,5.516-0.913,5.668-4.137
		c0.363-7.675-18.121-5.648-17.551-18.122c0.307-6.449,6.269-11.186,16.396-10.719c2.952,0.139,6.546,0.717,9.151,1.386
		l-0.487,10.558l-4.276-0.202c-0.836-1.825-1.588-4.054-1.839-5.579c-0.85-0.453-2.729-0.877-4.317-0.954
		c-3.288-0.153-5.322,1.198-5.461,4.005c-0.32,6.993,18.387,5.669,17.815,17.872C324.146,57.987,317.765,63.252,307.123,62.758
		L307.123,62.758L307.123,62.758z"/>
	<path fill="#FFFFFF" d="M344.036,65.209l0.613-3.378c1.671-0.746,3.58-1.295,5.432-1.519l4.611-25.393
		c-1.533-0.773-3.246-2.062-4.555-3.273l0.599-3.309l18.722,3.406l-0.613,3.309c-1.658,0.668-3.705,1.274-5.404,1.456l-4.611,25.393
		c1.644,0.857,3.231,2.055,4.541,3.336l-0.613,3.378L344.036,65.209L344.036,65.209z"/>
	<path fill="#FFFFFF" d="M420.3,60.118c-0.111-2.034-0.236-4.75,0.014-6.638l-5.864-2.34l-9.765,24.558
		c1.436,1.017,2.771,2.653,3.858,4.192l-1.268,3.19l-17.745-7.055l1.268-3.19c1.908-0.348,3.941-0.647,5.683-0.397l9.765-24.558
		l-5.865-2.333c-1.03,1.511-3.119,3.559-4.555,4.84l-3.789-1.511l4.18-10.523l32.121,12.773l-4.179,10.524L420.3,60.118
		L420.3,60.118L420.3,60.118z"/>
	<path fill="#FFFFFF" d="M469.972,78.157l-7.535-5.878l-29.113,17.914c-1.17-0.216-2.66-0.341-3.955-0.3l-2.104,2.703l10.948,8.56
		l2.104-2.709c-0.376-1.337-0.851-2.758-1.657-4.082l3.928-2.34l10.628,8.316l-1.323,4.367c-1.421-0.418-3.023-0.62-4.416-0.662
		l-2.104,2.702l13.011,10.176l2.117-2.703c-0.153-1.08-0.571-2.368-1.03-3.594L469.972,78.157L469.972,78.157z M460.291,80.169
		c-0.612,1.532-1.268,3.113-1.812,4.868l-3.439,10.622l-8.414-6.561l9.736-6.157c1.477-0.933,2.772-1.929,3.873-2.807
		L460.291,80.169L460.291,80.169L460.291,80.169z"/>
	<path fill="#FFFFFF" d="M506.69,137.747c1.03-1.762,2.423-4.088,3.69-5.523l-3.607-5.196l-21.716,15.065
		c0.641,1.637,0.85,3.747,0.905,5.627l-2.827,1.95l-10.879-15.685l2.813-1.95c1.783,0.759,3.65,1.637,4.959,2.813l21.717-15.064
		l-3.607-5.196c-1.686,0.697-4.569,1.247-6.464,1.525l-2.326-3.357l9.305-6.457l19.71,28.402l-9.305,6.449L506.69,137.747
		L506.69,137.747L506.69,137.747z"/>
	<path fill="#FFFFFF" d="M495.95,174.019l3.189-1.275c1.519,1.024,3.01,2.34,4.18,3.789l23.958-9.583
		c-0.167-1.707,0.015-3.837,0.349-5.6l3.12-1.247l7.062,17.662l-3.119,1.247c-1.449-1.045-3.051-2.466-4.109-3.81l-23.959,9.583
		c0.153,1.853-0.014,3.838-0.404,5.621l-3.189,1.282L495.95,174.019L495.95,174.019z"/>
	<path fill="#FFFFFF" d="M510.994,222.18c-0.767-3.406-1.185-7.09-1.017-10.029l10.711-2.438l0.961,4.234
		c-1.477,1.212-3.314,2.445-4.764,3.176c-0.32,1.358-0.418,3.406,0.111,5.718c0.641,2.891,2.341,5.07,5.488,4.353
		c7.494-1.707,0.613-18.972,12.801-21.744c6.283-1.428,12.439,3.043,14.696,12.933c0.655,2.884,1.059,6.505,1.101,9.194
		l-10.309,2.347l-0.947-4.172c1.533-1.295,3.482-2.619,4.891-3.273c0.208-0.926,0.125-2.862-0.224-4.408
		c-0.738-3.211-2.577-4.813-5.321-4.186c-6.825,1.553-0.557,19.229-12.467,21.939C520.146,237.314,513.362,232.578,510.994,222.18
		L510.994,222.18L510.994,222.18z"/>
	<path fill="#FFFFFF" d="M535.092,261.872c-0.335-2.807,1.714-5.307,4.652-5.662c2.939-0.349,5.517,1.602,5.851,4.409
		c0.334,2.813-1.713,5.376-4.639,5.732C538.03,266.698,535.44,264.686,535.092,261.872L535.092,261.872L535.092,261.872z"/>
	<path fill="#FFFFFF" d="M521.469,288.477l3.44-0.146c1.018,1.407,2.048,3.134,2.675,4.959l25.783-1.094
		c0.403-1.665,1.282-3.684,2.187-5.167l3.357-0.14l0.809,19.007l-3.357,0.139c-1.031-1.407-2.076-3.398-2.619-4.959l-26.326,1.115
		l0.557,8.406c1.533,0.404,3.831,1.163,5.781,1.936l0.181,4.339l-11.241,0.473L521.469,288.477L521.469,288.477z"/>
	<path fill="#FFFFFF" d="M553.061,371.363l-16.784-0.766c-10.295-0.502-15.295-7.243-14.891-16.967
		c0.501-11.854,6.699-15.67,15.002-15.322l18.038,0.753c0.529-1.156,1.686-2.626,2.55-3.511l3.356,0.14l-0.71,16.785l-3.357-0.153
		c-0.836-1.352-1.797-2.911-2.215-4.443l-16.59-0.697c-6.24-0.264-10.029,1.756-10.322,8.4c-0.223,5.391,2.898,8.232,8.525,8.398
		l17.69,0.544c0.474-1.491,1.713-3.022,2.591-4.234l3.343,0.14l-0.612,14.862l-3.357-0.14
		C554.523,374.136,553.423,372.631,553.061,371.363L553.061,371.363L553.061,371.363z"/>
	<path fill="#FFFFFF" d="M556.306,398.609l-3.314-0.557c-1.212,1.406-2.466,3.12-3.203,4.596l-25.464-4.262
		c-0.251-1.839-0.835-3.732-1.588-5.404l-3.385-0.558l-0.864,5.057c-0.835,5.001-1.713,9.458-2.242,12.578
		c-2.145,12.787,3.218,18.567,8.915,19.515c4.054,0.684,8.386-1.462,10.015-7.062c0.404,4.666,3.26,7.146,6.715,7.73
		c6.087,1.017,9.903-3.009,11.52-12.689c0.808-4.806,1.532-10.823,2.075-14.013L556.306,398.609L556.306,398.609z M533.727,408.777
		l-0.543,3.246c-0.947,5.642-3.454,8.9-7.243,8.274c-3.176-0.529-5.6-3.148-4.75-8.149c0.376-2.27,0.947-4.039,1.561-5.209
		L533.727,408.777L533.727,408.777z M549.091,411.355c-0.084,1.322-0.278,2.492-0.557,4.109c-0.809,4.875-3.482,6.226-6.589,5.711
		c-3.12-0.516-5.14-2.605-4.221-8.052c0.237-1.365,0.446-2.604,0.669-3.565L549.091,411.355L549.091,411.355L549.091,411.355z"/>
	<path fill="#FFFFFF" d="M509.155,444.563l3.26,1.101c0.376,1.657,0.779,3.677,0.71,5.6l24.376,8.246
		c1.059-1.379,2.73-2.897,3.971-4.012l3.189,1.087l-9.123,26.939l-8.971-3.037l1.365-4.066c1.337-0.307,3.552-0.6,4.944-0.475
		l2.618-7.73l-10.335-3.51l-2.146,6.379c0.906,0.725,1.672,1.881,2.201,2.688l-1.143,3.371l-10.141-3.44l1.143-3.371
		c0.947-0.236,2.438-0.779,3.51-0.752l2.16-6.365l-11.256-3.803l-2.618,7.73c1.379,0.877,2.827,2.354,3.872,3.537l-1.393,4.109
		l-9.361-3.162L509.155,444.563L509.155,444.563z"/>
	<path fill="#FFFFFF" d="M482.216,504.695c6.533-10.809,15.378-13.093,25.24-7.131c11.575,6.992,13.483,17.913,7.452,27.887
		c-2.243,3.719-4.527,6.421-6.505,8.385l-10.572-6.393l2.313-3.831c2.117,0.194,4.43,0.752,6.198,1.435
		c1.226-0.725,2.577-2.131,3.594-3.83c2.967-4.904,0.821-10.267-6.282-14.557c-6.756-4.096-12.62-2.869-17.021,4.401
		c-1.394,2.313-2.521,5.251-2.855,8.052l-5.141-1.728C478.497,513.374,479.736,508.818,482.216,504.695L482.216,504.695
		L482.216,504.695z"/>
	<path fill="#FFFFFF" d="M465.319,529.337l2.354,2.493c-0.432,1.645-1.03,3.622-1.991,5.279l17.663,18.722
		c1.573-0.725,3.76-1.282,5.391-1.686l2.298,2.452l-20.685,19.514l-6.506-6.895l3.12-2.925c1.323,0.349,3.413,1.128,4.583,1.894
		l5.947-5.6l-7.494-7.939l-4.889,4.611c0.474,1.059,0.6,2.451,0.697,3.412l-2.592,2.438l-7.354-7.786l2.591-2.452
		c0.947,0.237,2.521,0.461,3.455,0.99l4.889-4.611l-8.148-8.637l-5.934,5.6c0.793,1.422,1.393,3.399,1.769,4.945l-3.176,2.98
		l-6.771-7.188L465.319,529.337L465.319,529.337z"/>
	<path fill="#FFFFFF" d="M410.786,604.584l-14.027-28.667l7.049-3.44l29.363,16.715l-10.572-19.041
		c-1.533,0.139-3.232-0.027-5.168-0.223l-1.505-3.093l14.375-7.021l1.505,3.078c-1.031,1.645-2.076,3.232-3.162,4.305l11.004,23.262
		c1.783-0.264,3.747-0.152,5.642-0.014l1.49,3.023l-13.372,6.546l-26.215-14.904l9.151,16.743c1.519-0.195,3.19,0.056,4.819,0.404
		l1.477,3.022l-12.592,6.157l-1.477-3.023C409.268,607.008,409.88,605.712,410.786,604.584L410.786,604.584L410.786,604.584z"/>
	<path fill="#FFFFFF" d="M365.808,584.163c3.398-0.767,7.09-1.155,10.029-0.961l2.382,10.712l-4.249,0.947
		c-1.197-1.49-2.423-3.33-3.147-4.792c-1.351-0.335-3.398-0.432-5.711,0.069c-2.897,0.654-5.085,2.326-4.388,5.475
		c1.658,7.508,18.972,0.725,21.674,12.912c1.393,6.297-3.12,12.426-13.01,14.627c-2.897,0.641-6.52,1.016-9.207,1.059l-2.285-10.322
		l4.18-0.92c1.281,1.533,2.59,3.496,3.245,4.89c0.919,0.224,2.855,0.153,4.401-0.194c3.218-0.711,4.834-2.55,4.221-5.294
		c-1.518-6.839-19.236-0.654-21.869-12.592C350.61,593.217,355.389,586.476,365.808,584.163L365.808,584.163L365.808,584.163z"/>
	<path fill="#FFFFFF" d="M331.806,590.738l0.266,3.426c-1.422,1.156-3.121,2.174-4.848,2.87l2.061,25.728
		c1.686,0.348,3.664,1.156,5.252,1.992l0.265,3.356l-18.958,1.519l-0.278-3.357c1.435-1.072,3.259-2.187,4.861-2.799l-2.062-25.729
		c-1.824-0.404-3.664-1.143-5.252-2.062l-0.277-3.413L331.806,590.738L331.806,590.738z"/>
	<path fill="#FFFFFF" d="M282.997,591.922c3.482,0.07,7.16,0.585,9.974,1.477l-0.265,10.977l-4.346-0.111
		c-0.822-1.728-1.561-3.803-1.922-5.404c-1.227-0.642-3.19-1.24-5.559-1.296c-2.967-0.069-5.488,1.03-5.571,4.263
		c-0.181,7.675,18.247,5.251,17.94,17.731c-0.152,6.45-6.003,11.325-16.144,11.074c-2.953-0.083-6.575-0.585-9.18-1.198
		l0.251-10.559l4.276,0.098c0.878,1.811,1.685,4.025,1.978,5.544c0.836,0.446,2.744,0.821,4.318,0.864
		c3.301,0.083,5.307-1.311,5.377-4.123c0.167-6.993-18.512-5.266-18.22-17.482C266.073,597.063,272.328,591.657,282.997,591.922
		L282.997,591.922L282.997,591.922z"/>
	<path fill="#FFFFFF" d="M235.916,605.238c2.8,0.404,4.68,3.051,4.262,5.962c-0.417,2.925-2.967,4.903-5.767,4.499
		c-2.813-0.39-4.75-3.037-4.332-5.961C230.498,606.826,233.116,604.834,235.916,605.238L235.916,605.238L235.916,605.238z"/>
</g>
</svg>
